<?xml version="1.0" encoding="UTF-8"?>
<svg version="1.1" xmlns="http://www.w3.org/2000/svg" width="1024" height="1024">
<path d="M0 0 C0.71178406 -0.00006042 1.42356812 -0.00012085 2.15692139 -0.00018311 C18.90876649 0.01990808 35.37468445 1.42355003 51.94921875 3.8203125 C54.60112541 4.13949205 57.08543594 4.25471423 59.75 4.1875 C63 4.1875 63 4.1875 66 6.1875 C67.51232473 6.66343441 69.04467073 7.07755171 70.5859375 7.44921875 C71.50608643 7.67722168 72.42623535 7.90522461 73.37426758 8.14013672 C74.85963013 8.50389404 74.85963013 8.50389404 76.375 8.875 C107.64878377 16.8193419 137.71754259 29.21888724 164 48.1875 C165.07121094 48.95320313 166.14242188 49.71890625 167.24609375 50.5078125 C191.89429138 68.79031894 212.489021 92.57404753 226 120.1875 C226 120.8475 226 121.5075 226 122.1875 C226.66 122.5175 227.32 122.8475 228 123.1875 C228.95800781 125.18676758 228.95800781 125.18676758 229.953125 127.83203125 C230.32236084 128.80970459 230.69159668 129.78737793 231.07202148 130.79467773 C231.46075439 131.85243408 231.8494873 132.91019043 232.25 134 C232.64968994 135.07773682 233.04937988 136.15547363 233.46118164 137.26586914 C245.67900677 170.66289506 245.67900677 170.66289506 245 181.1875 C245.66 181.5175 246.32 181.8475 247 182.1875 C247.34375 184.25 247.34375 184.25 247.5 187.1875 C247.76219927 191.65945423 248.07884409 196.10227551 248.5390625 200.55859375 C250.91800265 224.49211366 250.25744607 248.49616766 246 272.1875 C245.84047852 273.08919922 245.68095703 273.99089844 245.51660156 274.91992188 C241.2368107 298.33144576 233.51272422 320.8577697 223 342.1875 C222.38584229 343.45037842 222.38584229 343.45037842 221.75927734 344.73876953 C212.55453489 363.51728765 201.19845877 380.96796544 188 397.1875 C187.5875 397.69619629 187.175 398.20489258 186.75 398.72900391 C174.39097899 413.89047061 160.88629756 428.48588092 146 441.1875 C145.10023438 441.97640625 144.20046875 442.7653125 143.2734375 443.578125 C125.04556902 459.43977627 104.91833463 473.13464569 84 485.1875 C82.85144531 485.85604004 82.85144531 485.85604004 81.6796875 486.53808594 C14.84942157 525.17764842 14.84942157 525.17764842 -13 522.1875 C-15.69321212 521.17258427 -17.90519966 520.20372493 -20.375 518.8125 C-21.01695312 518.45816895 -21.65890625 518.10383789 -22.3203125 517.73876953 C-28.28875641 514.28751684 -34.29212024 510.10156822 -38 504.1875 C-38.17216225 498.41596536 -34.70331578 493.98642924 -31.6875 489.3125 C-24.21915692 477.58077166 -18.00737845 466.65007576 -20 452.1875 C-21.45699709 450.51652733 -21.45699709 450.51652733 -23 449.1875 C-23.020625 448.23875 -23.04125 447.29 -23.0625 446.3125 C-24.1487636 442.69162135 -24.64835926 442.33099753 -27.8125 440.5 C-37.84465841 436.07113458 -49.45471671 435.66607589 -60.234375 434.515625 C-88.73653718 431.4604378 -116.1286854 425.84780721 -142 413.1875 C-142.71784668 412.83816406 -143.43569336 412.48882813 -144.17529297 412.12890625 C-155.11316325 406.74016078 -165.19048186 400.42064189 -175 393.1875 C-175.928125 392.50558594 -176.85625 391.82367187 -177.8125 391.12109375 C-193.63461226 378.79624715 -206.86371791 363.7920959 -218 347.1875 C-218.43634766 346.54248535 -218.87269531 345.8974707 -219.32226562 345.23291016 C-226.97209554 333.74901477 -234.59037989 319.85305804 -237 306.1875 C-237.99 305.8575 -238.98 305.5275 -240 305.1875 C-240.103125 304.07375 -240.20625 302.96 -240.3125 301.8125 C-241.08709096 295.60470676 -242.51099337 289.42100995 -246 284.1875 C-246.02787535 281.85433318 -246.02443147 279.52070542 -246 277.1875 C-246.40999301 274.94893814 -246.87289171 272.71971636 -247.375 270.5 C-248.97603599 262.74091403 -249.62771317 254.95758695 -250.1875 247.0625 C-250.27112793 245.90790283 -250.35475586 244.75330566 -250.44091797 243.5637207 C-251.24235965 231.39818064 -251.22637996 219.44371802 -250 207.3125 C-249.36774998 200.90456058 -248.87816813 194.62936021 -249 188.1875 C-248.34 188.1875 -247.68 188.1875 -247 188.1875 C-246.9582666 187.59251709 -246.9165332 186.99753418 -246.87353516 186.38452148 C-246.32487584 179.80124917 -245.07799883 173.62558136 -243.375 167.25 C-243.10993652 166.25145996 -242.84487305 165.25291992 -242.57177734 164.22412109 C-233.97486256 132.68873282 -219.04926252 104.09628629 -196.71484375 80.11328125 C-194.94436061 78.29357431 -194.94436061 78.29357431 -194 76.1875 C-193.34 76.1875 -192.68 76.1875 -192 76.1875 C-191.62875 75.259375 -191.62875 75.259375 -191.25 74.3125 C-189.79371361 71.83681313 -188.62187494 71.23624998 -186 70.1875 C-186 69.5275 -186 68.8675 -186 68.1875 C-149.71581701 29.53695725 -92.05062917 10.04214175 -41.1875 2.5 C-40.38868408 2.38043945 -39.58986816 2.26087891 -38.7668457 2.13769531 C-25.90989048 0.34134033 -12.96492013 -0.01713375 0 0 Z M-151 84.1875 C-151.845625 84.82816406 -152.69125 85.46882813 -153.5625 86.12890625 C-176.14733093 103.32755217 -192.39663181 128.16372101 -203 154.1875 C-203.37253906 155.08210938 -203.74507813 155.97671875 -204.12890625 156.8984375 C-204.9262282 158.99364226 -205.4769602 161.01165444 -206 163.1875 C-206.60277411 165.02129166 -207.20714682 166.8545581 -207.8125 168.6875 C-220.46537908 209.8668701 -221.61181622 263.96386756 -202 303.1875 C-201.33008234 304.64233332 -200.66246656 306.09822709 -199.99609375 307.5546875 C-182.09458632 346.29161965 -151.4751451 374.34714599 -111.42504883 389.32202148 C-90.40448006 396.82260589 -68.82373522 399.61198995 -46.80140686 402.33068848 C-39.80948581 403.19861781 -32.83762794 404.17044756 -25.875 405.25 C-24.93011719 405.38809082 -23.98523438 405.52618164 -23.01171875 405.66845703 C-10.25068443 407.69171626 1.93051918 411.6352334 10.375 421.9375 C18.40471901 434.00489022 19.00588859 448.60151262 16.234375 462.59765625 C14.66531316 469.26028406 12.1402838 475.13954602 9 481.1875 C9.33 482.1775 9.66 483.1675 10 484.1875 C40.32564894 472.07999279 70.02700454 457.76607193 96 437.7265625 C97.54786893 436.53542899 99.11409128 435.36812473 100.6875 434.2109375 C108.41370779 428.51688332 115.75796292 422.48038412 123 416.1875 C123.83015625 415.47078125 124.6603125 414.7540625 125.515625 414.015625 C135.94326303 404.83101667 146.10804293 395.04319537 154.703125 384.10546875 C156.45152908 381.88428193 158.22668539 379.71183662 160.046875 377.55078125 C173.87416624 361.04955702 184.68207199 342.864059 194.375 323.6875 C194.69686279 323.05320068 195.01872559 322.41890137 195.3503418 321.76538086 C197.54805252 317.3391531 199.33830318 312.83888904 201 308.1875 C201.23074219 307.56069336 201.46148438 306.93388672 201.69921875 306.28808594 C208.62866439 287.300237 213.45585702 267.3603422 215 247.1875 C215.06026367 246.49350098 215.12052734 245.79950195 215.18261719 245.08447266 C217.70324148 215.6038377 214.18268824 185.416952 203.90234375 157.640625 C203.23774583 155.83383932 202.60878279 154.01384838 202 152.1875 C201.22376267 150.20223115 200.4301089 148.22373667 199.625 146.25 C198.99464844 144.68958984 198.99464844 144.68958984 198.3515625 143.09765625 C197.12804035 140.46319381 195.75191721 138.47728652 194 136.1875 C194 135.5275 194 134.8675 194 134.1875 C193.01 134.1875 192.02 134.1875 191 134.1875 C191.21140625 133.61257813 191.4228125 133.03765625 191.640625 132.4453125 C192.10905903 129.50232481 191.37294836 128.51557713 189.75 126.0625 C189.31171875 125.37929687 188.8734375 124.69609375 188.421875 123.9921875 C186.9467136 121.9278846 186.9467136 121.9278846 184 120.1875 C183.64658618 118.85934807 183.31638738 117.52495576 183 116.1875 C159.08018846 76.5451157 110.78403256 53.46490975 67.55541992 42.70483398 C-6.27996731 25.23403506 -90.34520199 36.84501958 -151 84.1875 Z " fill="#030403" transform="translate(505,123.8125)"/>
<path d="M0 0 C4.57155455 0.44105227 9.14416982 0.38527799 13.73324871 0.37587357 C14.80301449 0.37762589 15.87278027 0.3793782 16.97496319 0.38118362 C20.48465923 0.38555702 23.99430417 0.38267903 27.50400066 0.37929153 C29.96484162 0.37996612 32.42568252 0.38093743 34.88652325 0.3821907 C40.03661008 0.38366179 45.18667953 0.381533 50.33676434 0.37685013 C56.90184804 0.37116827 63.46689071 0.37442583 70.03197289 0.38042259 C75.11352624 0.38405699 80.19507007 0.3828762 85.27662373 0.3802948 C87.69526264 0.37963269 90.11390245 0.3804286 92.53254032 0.38277435 C109.6455614 0.40127668 109.6455614 0.40127668 126.72233868 -0.57606125 C129.99236413 -0.7809366 133.00010926 -0.55217551 136.23300457 -0.07627487 C139.25765255 0.34418618 142.28308549 0.56011757 145.32821941 0.78554153 C146.49530437 0.87271439 147.66238934 0.95988724 148.86484051 1.04970169 C150.1963615 1.14710648 150.1963615 1.14710648 151.55478191 1.24647903 C152.47311344 11.61709745 153.38623028 21.98816089 154.29284191 32.35981083 C154.71405744 37.17667091 155.1370127 41.99336455 155.56405926 46.80971146 C155.976742 51.46480855 156.38470403 56.1202982 156.78950787 60.77608681 C156.94412796 62.54506514 157.10039834 64.31390009 157.25841045 66.08257866 C158.06750768 75.15106191 158.83593134 84.13008143 158.55478191 93.24647903 C155.5546228 94.24653207 153.58054435 94.36223489 150.44931316 94.34413528 C149.46640301 94.34091263 148.48349285 94.33768997 147.47079754 94.33436966 C146.44663738 94.32599075 145.42247723 94.31761185 144.36728191 94.30897903 C142.81363934 94.30221146 142.81363934 94.30221146 141.22861004 94.29530716 C138.67060925 94.28351914 136.11272458 94.26706419 133.55478191 94.24647903 C133.39920818 93.67316849 133.24363445 93.09985794 133.08334637 92.50917435 C127.71770201 72.87386956 122.07814869 56.07084823 107.55478191 41.24647903 C106.96310223 40.6187056 106.37142254 39.99093216 105.76181316 39.34413528 C96.06930273 29.9083801 82.6931847 25.13903467 69.55478191 23.24647903 C68.36304363 23.07301956 67.17130535 22.89956009 65.94345379 22.72084427 C61.3052042 22.14479307 56.7224351 22.13456577 52.05478191 22.18397903 C51.23236004 22.18849075 50.40993816 22.19300247 49.56259441 22.19765091 C47.55995795 22.20929414 45.55735965 22.22722348 43.55478191 22.24647903 C43.48463074 49.02865902 43.43176378 75.81082519 43.3993454 102.59307861 C43.38389139 115.02917176 43.36282986 127.46520774 43.32846355 139.90126419 C43.29851636 150.74337499 43.27919626 161.58544437 43.27251643 172.42759538 C43.2686132 178.16583652 43.25947054 183.90395922 43.23759174 189.64216232 C43.21714259 195.04951477 43.21096513 200.45670061 43.21545887 205.86408806 C43.21463743 207.84250228 43.20872228 209.82092241 43.19716549 211.79930305 C42.57092246 229.15029864 42.57092246 229.15029864 48.86728191 244.80897903 C53.65899395 249.15495041 57.95764198 250.61025985 64.36728191 250.93397903 C66.19259441 251.03259232 66.19259441 251.03259232 68.05478191 251.13319778 C70.9971194 251.22842969 73.92400777 251.27006296 76.86728191 251.24647903 C78.08415691 251.24647903 79.30103191 251.24647903 80.55478191 251.24647903 C82.44030721 253.13200433 81.68724881 255.82416735 81.69150066 258.32851028 C81.68763348 259.12643997 81.68376629 259.92436966 81.67978191 260.74647903 C81.6836491 261.54440872 81.68751629 262.34233841 81.69150066 263.16444778 C81.68138959 269.11987136 81.68138959 269.11987136 80.55478191 270.24647903 C78.73250504 270.34291682 76.90644831 270.36835274 75.08162212 270.36673355 C73.29996655 270.36879555 73.29996655 270.36879555 71.48231792 270.3708992 C70.16745907 270.36730392 68.85260021 270.36370865 67.49789715 270.36000443 C66.10860477 270.35972256 64.71931224 270.35988028 63.33001995 270.36044693 C59.54712903 270.36073492 55.76426954 270.35483805 51.98138595 270.34787297 C48.03222515 270.34163958 44.0830637 270.34103565 40.13389874 270.33984756 C32.65053116 270.3367342 25.16717813 270.32852075 17.68381697 270.31849808 C9.16642458 270.30733708 0.64903151 270.30182652 -7.86836636 270.29680264 C-25.39399226 270.28633814 -42.91960308 270.26853818 -60.44521809 270.24647903 C-60.44521809 264.30647903 -60.44521809 258.36647903 -60.44521809 252.24647903 C-57.29468468 251.19630123 -55.18141013 251.17766668 -51.88271809 251.24647903 C-38.67379766 251.49429979 -38.67379766 251.49429979 -27.44521809 245.24647903 C-19.12595267 235.91112013 -20.15357686 222.61727494 -20.20229816 210.89271927 C-20.20122299 209.37711887 -20.19928083 207.86151888 -20.1965456 206.34592056 C-20.19173533 202.26388184 -20.19930209 198.18195394 -20.20949864 194.09992862 C-20.21833039 189.81943958 -20.21652079 185.53895348 -20.21613789 181.25845718 C-20.21707145 174.08248937 -20.2257186 166.90656412 -20.23940754 159.73060989 C-20.25518374 151.42968127 -20.26040362 143.12879901 -20.25967199 134.82785648 C-20.25899758 125.98155521 -20.26592665 117.13527183 -20.27511859 108.28897595 C-20.27725153 105.73994774 -20.27795995 103.19092241 -20.27835751 100.64189339 C-20.27935936 96.64700807 -20.28544292 92.65216191 -20.29552364 88.65728951 C-20.29845184 87.18908299 -20.29967337 85.72087198 -20.29909611 84.25266266 C-20.29860771 82.25490529 -20.30486245 80.25714961 -20.31150532 78.25940323 C-20.31318116 77.13988486 -20.31485701 76.0203665 -20.31658363 74.86692333 C-20.26793883 72.2653524 -20.26793883 72.2653524 -21.44521809 70.24647903 C-21.11878443 67.91217044 -20.78388378 65.57904438 -20.44521809 63.24647903 C-20.29119651 60.19832749 -20.28143839 57.15360462 -20.27724934 54.10194778 C-20.27392094 53.25095001 -20.27059254 52.39995224 -20.26716328 51.52316666 C-20.26212873 49.7373394 -20.25975387 47.95150284 -20.25991535 46.16566849 C-20.25771076 43.42487337 -20.23946972 40.68446968 -20.22060871 37.94374466 C-20.21767773 36.20481374 -20.21569096 34.46588092 -20.21474934 32.72694778 C-20.20397106 31.49575462 -20.20397106 31.49575462 -20.19297504 30.23968887 C-20.02061712 25.77094736 -20.02061712 25.77094736 -22.44521809 22.24647903 C-41.88622659 20.35522213 -60.29176276 25.22994973 -75.82021809 37.05507278 C-90.49839126 49.37779587 -96.83573664 66.91073568 -101.77847004 84.83803177 C-102.64816382 87.97956571 -103.54971137 91.11220551 -104.44521809 94.24647903 C-112.69521809 93.91647903 -120.94521809 93.58647903 -129.44521809 93.24647903 C-129.44521809 87.21570377 -129.4223755 81.8069149 -128.78896809 75.91054153 C-128.58594074 73.9421431 -128.58594074 73.9421431 -128.37881184 71.93397903 C-128.16328641 69.90481446 -127.9456932 67.87588578 -127.72695637 65.84706497 C-126.81238611 57.29033738 -126.22639254 48.85969551 -126.44521809 40.24647903 C-126.11521809 40.24647903 -125.78521809 40.24647903 -125.44521809 40.24647903 C-125.32928303 39.07029007 -125.21334797 37.8941011 -125.09389973 36.68227005 C-124.66412139 32.33399907 -124.22853862 27.98632608 -123.79116535 23.63881302 C-123.60239577 21.75420648 -123.41521786 19.86943983 -123.22964191 17.98451614 C-122.963202 15.28103911 -122.69111306 12.57818253 -122.41787434 9.87538528 C-122.29437359 8.60351112 -122.29437359 8.60351112 -122.16837788 7.30594254 C-121.55908979 1.36035074 -121.55908979 1.36035074 -120.44521809 0.24647903 C-117.73073572 0.15655509 -115.04187077 0.13156754 -112.32729816 0.14882278 C-111.47491566 0.15028305 -110.62253315 0.15174332 -109.74432087 0.15324783 C-107.88257303 0.15706689 -106.02082887 0.16319698 -104.15909481 0.17131424 C-101.19152956 0.18407891 -98.22400915 0.19059664 -95.25642109 0.19545364 C-87.86482179 0.20883502 -80.47326343 0.23270698 -73.0816927 0.25685501 C-66.86851121 0.27682458 -60.65534725 0.29238181 -54.44214153 0.30241776 C-51.5568895 0.30877599 -48.67171022 0.32129626 -45.7864809 0.33412552 C-35.50835667 0.36111733 -25.28596395 0.1606982 -15.02557564 -0.48885727 C-9.90713602 -0.77968719 -5.08972783 -0.58699715 0 0 Z " fill="#020202" transform="translate(489.4452180862427,227.75352096557617)"/>
<path d="M0 0 C16.80223821 -0.02332875 33.60447139 -0.04097906 50.40672207 -0.05181217 C58.20775836 -0.05697518 66.00878461 -0.06401797 73.80981445 -0.07543945 C80.60676313 -0.08538615 87.40370454 -0.09185339 94.20066029 -0.09408849 C97.80178131 -0.09539563 101.40288152 -0.09848164 105.0039959 -0.10573006 C109.01756602 -0.11374364 113.03109964 -0.11399115 117.04467773 -0.11352539 C118.84865273 -0.1189183 118.84865273 -0.1189183 120.68907166 -0.12442017 C121.77587219 -0.1230455 122.86267273 -0.12167084 123.98240662 -0.12025452 C124.93277518 -0.12117631 125.88314375 -0.1220981 126.86231136 -0.12304783 C129 0 129 0 130 1 C130.09333705 2.59610982 130.11745372 4.19633428 130.11352539 5.79516602 C130.11344986 6.81614883 130.11337433 7.83713165 130.11329651 8.88905334 C130.10813522 9.9994548 130.10297394 11.10985626 130.09765625 12.25390625 C130.09553383 13.94978127 130.09553383 13.94978127 130.09336853 15.67991638 C130.08775019 19.30747065 130.07519458 22.93496424 130.0625 26.5625 C130.05748736 29.01497307 130.05292405 31.4674471 130.04882812 33.91992188 C130.0377748 39.94663545 130.02101884 45.97331339 130 52 C127.03 52 124.06 52 121 52 C120.01 47.71 119.02 43.42 118 39 C116.02 38.505 116.02 38.505 114 38 C114.66 36.35 115.32 34.7 116 33 C115.34 32.67 114.68 32.34 114 32 C113.62875 31.13375 113.2575 30.2675 112.875 29.375 C109.69133918 23.64441052 104.39534147 18.90906568 98.19482422 16.54760742 C95.07700705 15.76971377 91.94041198 15.36177898 88.7578125 14.92578125 C87.49340332 14.75087158 86.22899414 14.57596191 84.92626953 14.39575195 C83.96060059 14.26515381 82.99493164 14.13455566 82 14 C82.10727407 29.42936503 82.22004175 44.85868269 82.33933926 60.2879591 C82.39460393 67.45212888 82.44807474 74.61630364 82.49731445 81.78051758 C82.54023915 88.02525397 82.58653787 94.26995469 82.63687855 100.51463586 C82.66341285 103.82075855 82.68776081 107.12687383 82.70907402 110.4330349 C82.73316014 114.12492165 82.76320927 117.81671475 82.79467773 121.50854492 C82.8004332 122.60330643 82.80618866 123.69806793 82.81211853 124.82600403 C82.82190735 125.83416168 82.83169617 126.84231934 82.84178162 127.88102722 C82.84823417 128.75396518 82.85468672 129.62690313 82.8613348 130.52629375 C83.00547773 133.09771952 83.43571218 135.48999147 84 138 C87.71429898 139.1161656 91.39161508 139.3124195 95.25 139.5625 C96.51328125 139.64628906 97.7765625 139.73007812 99.078125 139.81640625 C100.04234375 139.87699219 101.0065625 139.93757812 102 140 C102 143.3 102 146.6 102 150 C102.66 150.33 103.32 150.66 104 151 C99.63466556 151.83811827 95.5189243 152.12178239 91.07666016 152.11352539 C90.4125412 152.11367142 89.74842224 152.11381744 89.06417847 152.1139679 C86.88910551 152.11327634 84.71412032 152.10551973 82.5390625 152.09765625 C81.02306159 152.09578938 79.50706008 152.09436675 77.99105835 152.09336853 C74.01595369 152.08956456 70.04088602 152.07975253 66.0657959 152.06866455 C62.00350444 152.0584047 57.94120696 152.05386114 53.87890625 152.04882812 C45.91925393 152.03812822 37.95963158 152.02107746 30 152 C27.69096728 148.01647791 28.13483472 145.49885947 29 141 C31.475 140.01 31.475 140.01 34 139 C34 139.66 34 140.32 34 141 C36.35171131 140.40138258 38.6859378 139.73075648 41 139 C41.33 138.34 41.66 137.68 42 137 C44.0625 136.375 44.0625 136.375 46 136 C46.8750504 132.97426625 47.13438968 130.26056171 47.15821838 127.11517334 C47.1680072 126.13363281 47.17779602 125.15209229 47.18788147 124.14080811 C47.19363693 123.07050354 47.1993924 122.00019897 47.20532227 120.89746094 C47.21522186 119.76546265 47.22512146 118.63346436 47.23532104 117.46716309 C47.26692597 113.72292172 47.29168963 109.97866766 47.31640625 106.234375 C47.33697663 103.63933989 47.35797313 101.04430813 47.37937927 98.44927979 C47.42894694 92.31538938 47.47421456 86.18148102 47.51740164 80.04754281 C47.56681539 73.06327184 47.62171815 66.0790474 47.67708123 59.09482145 C47.79082701 44.72992468 47.89768212 30.36498249 48 16 C42.95896084 13.47948042 35.34537678 15.28281867 30.1640625 16.8671875 C22.38236843 20.33902024 17.84276078 25.61151793 14.56640625 33.4140625 C13.30070551 36.92196899 12.13664743 40.44849721 11 44 C10.40771827 45.62936942 9.80599726 47.2554002 9.1875 48.875 C8.795625 49.90625 8.40375 50.9375 8 52 C5.03 52 2.06 52 -1 52 C-1.02529271 44.91586059 -1.04284261 37.83173277 -1.05493164 30.74755859 C-1.05996974 28.33609583 -1.06680034 25.92463614 -1.07543945 23.51318359 C-1.08752787 20.05305221 -1.09323344 16.5929611 -1.09765625 13.1328125 C-1.10281754 12.04944611 -1.10797882 10.96607971 -1.11329651 9.84988403 C-1.11337204 8.8489975 -1.11344757 7.84811096 -1.11352539 6.81689453 C-1.115746 5.93309113 -1.11796661 5.04928772 -1.12025452 4.13870239 C-1 2 -1 2 0 0 Z M116 36 C117 38 117 38 117 38 Z " fill="#060706" transform="translate(158,736)"/>
<path d="M0 0 C9.97264101 10.64387647 6.72970898 30.2607463 6.625 43.796875 C5.03073863 61.47428937 5.03073863 61.47428937 8.9453125 77.52368164 C11.72605728 79.52800044 14.32649753 79.03423886 17.625 78.734375 C18.285 78.074375 18.945 77.414375 19.625 76.734375 C21.275 79.374375 22.925 82.014375 24.625 84.734375 C20.20895619 91.55916998 12.99649696 95.50028542 5.1875 97.234375 C-2.50682488 98.27767329 -9.48666988 97.42814081 -15.9375 92.921875 C-18.82308356 90.52017252 -20.49283913 88.48355871 -21.375 84.734375 C-22.32375 85.62125 -23.2725 86.508125 -24.25 87.421875 C-33.96474161 95.77140853 -44.0360852 97.48999957 -56.43066406 96.91357422 C-60.88595633 96.50295336 -64.53237081 94.93409118 -68.375 92.734375 C-69.12652344 92.321875 -69.87804687 91.909375 -70.65234375 91.484375 C-75.62401846 88.3197647 -77.65866606 85.16971643 -78.97265625 79.44140625 C-80.48502738 69.26593834 -79.30645967 61.05977734 -73.10546875 52.66015625 C-64.8199941 43.10139575 -49.4041296 40.41444594 -37.73144531 37.35253906 C-34.66753503 36.54878639 -31.61550066 35.70348629 -28.5625 34.859375 C-27.16705579 34.48292959 -25.77141869 34.10718936 -24.375 33.734375 C-24.375 33.074375 -24.375 32.414375 -24.375 31.734375 C-23.715 31.734375 -23.055 31.734375 -22.375 31.734375 C-22.560625 30.64125 -22.74625 29.548125 -22.9375 28.421875 C-23.375 24.734375 -23.375 24.734375 -22.375 21.734375 C-22.41104501 16.41773675 -22.5384126 10.69085575 -26.375 6.734375 C-32.15643929 3.73179452 -37.09316139 3.24376923 -43.375 4.734375 C-45.95451684 5.66681371 -45.95451684 5.66681371 -47.375 7.734375 C-47.69512236 10.93559864 -47.53099527 13.80966076 -46.99609375 16.98046875 C-46.3138965 21.2388158 -46.07150642 23.12738783 -48.0625 27.109375 C-51.88820334 31.45206528 -54.29946233 33.25460061 -60.28515625 33.80078125 C-64.88487155 33.65462207 -68.31269213 31.62895005 -71.75 28.734375 C-75.10384167 24.60656987 -74.7746128 19.96428544 -74.70703125 14.87109375 C-73.97449861 7.9508148 -70.52826181 3.39406453 -65.3125 -1.015625 C-46.93282207 -14.023246 -17.17964453 -16.20982589 0 0 Z M-45.73828125 54.98828125 C-49.73959576 59.2569867 -49.85641013 63.37231032 -49.765625 69.03125 C-49.15009465 73.29072 -47.56784585 74.9127903 -44.375 77.734375 C-38.85382667 79.57476611 -34.25103089 79.42998403 -29.0625 76.921875 C-26.3808581 75.50218223 -24.24410807 74.14269871 -22.375 71.734375 C-21.96018419 68.82915796 -21.96018419 68.82915796 -22.08203125 65.53515625 C-22.09169922 64.32666016 -22.10136719 63.11816406 -22.11132812 61.87304688 C-22.13646484 60.61041016 -22.16160156 59.34777344 -22.1875 58.046875 C-22.20103516 56.77263672 -22.21457031 55.49839844 -22.22851562 54.18554688 C-22.26391801 51.03473443 -22.3133021 47.88476455 -22.375 44.734375 C-30.32698335 44.734375 -39.8858226 50.16139631 -45.73828125 54.98828125 Z " fill="#060606" transform="translate(831.375,792.265625)"/>
<path d="M0 0 C1.0577211 -0.00315216 2.1154422 -0.00630432 3.20521545 -0.009552 C4.35106613 -0.00752777 5.49691681 -0.00550354 6.67749023 -0.00341797 C7.84867905 -0.00437469 9.01986786 -0.00533142 10.22654724 -0.00631714 C12.70555678 -0.00699855 15.1845681 -0.005147 17.66357422 -0.00097656 C21.47359187 0.00437698 25.28349188 -0.00092538 29.09350586 -0.00732422 C31.49650091 -0.00666352 33.89949589 -0.00538254 36.30249023 -0.00341797 C37.45036514 -0.0054422 38.59824005 -0.00746643 39.78089905 -0.009552 C41.36275246 -0.00482376 41.36275246 -0.00482376 42.9765625 0 C43.90984879 0.00079559 44.84313507 0.00159119 45.80470276 0.00241089 C47.92358398 0.12939453 47.92358398 0.12939453 48.92358398 1.12939453 C48.99538362 2.64867491 49.00750406 4.17106935 48.98608398 5.69189453 C48.97706055 6.51818359 48.96803711 7.34447266 48.95874023 8.19580078 C48.94713867 8.83388672 48.93553711 9.47197266 48.92358398 10.12939453 C48.21331055 10.33435547 47.50303711 10.53931641 46.77124023 10.75048828 C45.85213867 11.01990234 44.93303711 11.28931641 43.98608398 11.56689453 C43.06956055 11.83373047 42.15303711 12.10056641 41.20874023 12.37548828 C38.98333468 12.91965504 38.98333468 12.91965504 37.92358398 14.12939453 C36.95963694 22.1987244 40.11725328 28.96691458 42.98608398 36.37939453 C43.74704426 38.38693456 44.50361628 40.39609496 45.26011658 42.40531921 C45.7639705 43.74226578 46.26938719 45.07862446 46.77638245 46.41438293 C49.26676987 52.9859141 51.56900604 59.61857717 53.81640625 66.27685547 C54.93569668 69.5432035 55.99693122 72.23941539 57.92358398 75.12939453 C58.42172607 73.71799194 58.42172607 73.71799194 58.92993164 72.27807617 C65.13061523 54.70947266 65.13061523 54.70947266 65.9208374 52.4715271 C66.45070013 50.96956863 66.97970598 49.46730761 67.50787354 47.9647522 C68.86058445 44.12002331 70.22847891 40.28191185 71.62573242 36.453125 C71.89993011 35.69503036 72.17412781 34.93693573 72.45663452 34.15586853 C72.97445239 32.72545793 73.49737427 31.29687977 74.02651978 29.87062073 C76.82839138 22.09236602 76.82839138 22.09236602 75.92358398 14.12939453 C72.12757589 12.23139048 68.00541273 11.24989654 63.92358398 10.12939453 C64.25358398 7.15939453 64.58358398 4.18939453 64.92358398 1.12939453 C67.64207359 0.22323133 69.21928654 0.00309154 72.01196289 0 C72.82935944 -0.00315216 73.64675598 -0.00630432 74.48892212 -0.009552 C75.36712616 -0.00752777 76.2453302 -0.00550354 77.15014648 -0.00341797 C78.05356781 -0.00437469 78.95698914 -0.00533142 79.88778687 -0.00631714 C81.7958788 -0.00699739 83.70397306 -0.00515392 85.61206055 -0.00097656 C88.54407903 0.00438629 91.47594519 -0.00093318 94.40795898 -0.00732422 C96.25952182 -0.00666365 98.11108457 -0.00538294 99.96264648 -0.00341797 C100.84489899 -0.0054422 101.72715149 -0.00746643 102.63613892 -0.009552 C108.80862568 0.01443623 108.80862568 0.01443623 109.92358398 1.12939453 C109.99538362 2.64867491 110.00750406 4.17106935 109.98608398 5.69189453 C109.97706055 6.51818359 109.96803711 7.34447266 109.95874023 8.19580078 C109.94713867 8.83388672 109.93553711 9.47197266 109.92358398 10.12939453 C109.3319043 10.28794922 108.74022461 10.44650391 108.13061523 10.60986328 C106.94532227 10.95984375 106.94532227 10.95984375 105.73608398 11.31689453 C104.9587793 11.53732422 104.18147461 11.75775391 103.38061523 11.98486328 C98.07716802 14.45530849 95.46806919 18.40549879 93.45021057 23.78205872 C93.06384682 24.87244698 93.06384682 24.87244698 92.66967773 25.98486328 C92.0681939 27.60393086 91.46645604 29.22290408 90.86450195 30.84179688 C90.55067566 31.70029236 90.23684937 32.55878784 89.91351318 33.44329834 C88.18808227 38.12512146 86.37851268 42.7746049 84.58374023 47.43017578 C83.82206693 49.417574 83.06100613 51.40520706 82.30053711 53.39306641 C80.76198569 57.41409572 79.22299754 61.43495681 77.68334961 65.45556641 C77.30471771 66.4446701 76.92608582 67.4337738 76.53598022 68.45285034 C75.78150946 70.42374285 75.02681301 72.39454898 74.2718811 74.36526489 C72.37392424 79.32344587 70.48494115 84.28479393 68.6105957 89.25195312 C68.24195908 90.22674118 67.87332245 91.20152924 67.49351501 92.20585632 C66.79165096 94.06307588 66.09198167 95.92112675 65.39479065 97.78010559 C65.08387985 98.60201889 64.77296906 99.42393219 64.45263672 100.27075195 C64.04427834 101.35642708 64.04427834 101.35642708 63.62767029 102.46403503 C62.92358398 104.12939453 62.92358398 104.12939453 61.92358398 105.12939453 C60.28885517 105.21639795 58.65044343 105.23640516 57.01342773 105.22705078 C56.02407227 105.22382812 55.0347168 105.22060547 54.01538086 105.21728516 C52.97446289 105.20890625 51.93354492 105.20052734 50.86108398 105.19189453 C49.81629883 105.18738281 48.77151367 105.18287109 47.69506836 105.17822266 C45.10451739 105.16639366 42.5140784 105.14991142 39.92358398 105.12939453 C37.00527528 99.53925808 34.39464882 94.28112019 32.92358398 88.12939453 C31.93358398 88.12939453 30.94358398 88.12939453 29.92358398 88.12939453 C29.87331055 86.93056641 29.82303711 85.73173828 29.77124023 84.49658203 C29.00782548 77.62181001 26.07371351 71.55338444 23.36108398 65.25439453 C22.33199888 62.8431597 21.31210274 60.42842473 20.29467773 58.01220703 C19.61296509 56.42496826 19.61296509 56.42496826 18.91748047 54.80566406 C17.92358398 52.12939453 17.92358398 52.12939453 17.92358398 49.12939453 C17.26358398 48.79939453 16.60358398 48.46939453 15.92358398 48.12939453 C15.59358398 47.46939453 15.26358398 46.80939453 14.92358398 46.12939453 C15.25358398 45.46939453 15.58358398 44.80939453 15.92358398 44.12939453 C14.93358398 44.12939453 13.94358398 44.12939453 12.92358398 44.12939453 C13.25358398 43.13939453 13.58358398 42.14939453 13.92358398 41.12939453 C12.69718179 36.84607878 10.90770711 32.75657438 9.23608398 28.62939453 C8.56416016 26.89882813 8.56416016 26.89882813 7.87866211 25.13330078 C7.21447266 23.47621094 7.21447266 23.47621094 6.53686523 21.78564453 C6.13250244 20.77308594 5.72813965 19.76052734 5.31152344 18.71728516 C3.07283199 14.54311992 0.02844383 12.96609548 -4.32641602 11.44189453 C-6.18266602 10.79220703 -6.18266602 10.79220703 -8.07641602 10.12939453 C-7.9627934 8.64931044 -7.83518693 7.17029379 -7.70141602 5.69189453 C-7.63180664 4.86818359 -7.56219727 4.04447266 -7.49047852 3.19580078 C-7.35383789 2.51388672 -7.21719727 1.83197266 -7.07641602 1.12939453 C-4.55583698 -0.13089499 -2.82083021 0.00240261 0 0 Z M30.92358398 85.12939453 C31.92358398 87.12939453 31.92358398 87.12939453 31.92358398 87.12939453 Z " fill="#070706" transform="translate(572.076416015625,782.87060546875)"/>
<path d="M0 0 C2.35975647 -0.36749268 2.35975647 -0.36749268 5.35180664 -0.35644531 C7.02848167 -0.36094696 7.02848167 -0.36094696 8.73902893 -0.36553955 C9.95050095 -0.35319275 11.16197296 -0.34084595 12.41015625 -0.328125 C13.6479332 -0.32625183 14.88571014 -0.32437866 16.16099548 -0.32244873 C19.45368522 -0.31398894 22.74594089 -0.29198356 26.03851318 -0.26428223 C29.39349993 -0.24060782 32.74845023 -0.23929595 36.10351562 -0.234375 C38.64323397 -0.22520529 41.18294832 -0.21482963 43.72265625 -0.203125 C44.9361525 -0.19887512 46.14964874 -0.19462524 47.3999176 -0.19024658 C49.0718644 -0.17583527 49.0718644 -0.17583527 50.77758789 -0.16113281 C51.76416885 -0.15430481 52.75074982 -0.14747681 53.76722717 -0.14044189 C56 0 56 0 57 1 C57.07179964 2.51928038 57.08392007 4.04167482 57.0625 5.5625 C57.05347656 6.38878906 57.04445313 7.21507812 57.03515625 8.06640625 C57.02355469 8.70449219 57.01195312 9.34257813 57 10 C56.21753906 10.20496094 55.43507813 10.40992188 54.62890625 10.62109375 C53.61699219 10.89050781 52.60507812 11.15992188 51.5625 11.4375 C50.55316406 11.70433594 49.54382813 11.97117187 48.50390625 12.24609375 C46.08247999 12.75978077 46.08247999 12.75978077 45 14 C45.27396909 22.31628742 48.1190821 29.48612394 51.0625 37.1875 C51.560079 38.51212798 52.0565691 39.83716548 52.55200195 41.16259766 C53.54973289 43.82954249 54.55199627 46.4947123 55.55761719 49.15869141 C57.64949444 54.71307619 59.66884189 60.29367427 61.6875 65.875 C62.3370651 67.66412586 62.9867853 69.45319542 63.63671875 71.2421875 C64.08660156 72.48226562 64.53648437 73.72234375 65 75 C67.74957708 68.96961 70.26729192 62.88974286 72.6015625 56.6875 C72.92410004 55.83373779 73.24663757 54.97997559 73.57894897 54.1003418 C74.25427327 52.30930081 74.92813567 50.51770797 75.60058594 48.72558594 C76.62322453 46.00472386 77.65517952 43.28751346 78.6875 40.5703125 C79.34692837 38.8179243 80.00580129 37.06532696 80.6640625 35.3125 C80.9692984 34.51223389 81.2745343 33.71196777 81.58901978 32.88745117 C85.41259921 23.58518209 85.41259921 23.58518209 85 14 C82.67730041 12.75501391 82.67730041 12.75501391 79.9375 11.8125 C78.55884766 11.29623047 78.55884766 11.29623047 77.15234375 10.76953125 C76.44207031 10.51558594 75.73179687 10.26164063 75 10 C75.11362262 8.5199159 75.24122908 7.04089926 75.375 5.5625 C75.44460938 4.73878906 75.51421875 3.91507813 75.5859375 3.06640625 C75.72257813 2.38449219 75.85921875 1.70257812 76 1 C79.33155251 -0.66577625 83.06536059 -0.12007856 86.7265625 -0.09765625 C88.02078629 -0.09553383 88.02078629 -0.09553383 89.34115601 -0.09336853 C92.1024723 -0.08776188 94.86370812 -0.07520827 97.625 -0.0625 C99.4947905 -0.05748586 101.36458226 -0.0529228 103.234375 -0.04882812 C107.82294777 -0.03779029 112.41146023 -0.0205212 117 0 C118.38970588 7.46323529 118.38970588 7.46323529 116 11 C114.04749948 11.87969804 112.14324464 12.49528276 110.0703125 13.03125 C104.84425311 15.47665138 102.89461594 21.08998564 100.9609375 26.18359375 C100.54295647 27.25194206 100.54295647 27.25194206 100.11653137 28.34187317 C99.19455218 30.70400483 98.28499427 33.07072846 97.375 35.4375 C96.72788714 37.09964144 96.07983649 38.76141805 95.4309082 40.42285156 C93.66094636 44.96024866 91.90123818 49.50155362 90.14398193 54.04388428 C86.90445224 62.41501706 83.65300352 70.78149493 80.39459229 79.14529419 C79.19690636 82.22580633 78.00616845 85.30894263 76.81591797 88.39233398 C76.07936322 90.28769936 75.34255934 92.18296794 74.60546875 94.078125 C74.26965286 94.9534639 73.93383698 95.8288028 73.58784485 96.73066711 C73.275504 97.53014267 72.96316315 98.32961823 72.64135742 99.15332031 C72.37127365 99.85144836 72.10118988 100.54957642 71.82292175 101.26885986 C71 103 71 103 69 105 C65.54271889 105.50270974 62.05220902 105.416659 58.5625 105.4375 C57.59505859 105.47037109 56.62761719 105.50324219 55.63085938 105.53710938 C52.99271108 105.55724791 50.58839353 105.51328081 48 105 C45.37085312 102.15215374 45 100.84941723 45 97 C44.01 96.67 43.02 96.34 42 96 C42 95.01 42 94.02 42 93 C41.69949171 91.59673361 41.36409864 90.20062607 41 88.8125 C40.67 87.554375 40.34 86.29625 40 85 C39.34 85 38.68 85 38 85 C37.814375 83.88625 37.814375 83.88625 37.625 82.75 C37.03915827 80.17229638 36.2015931 78.32808664 35 76 C34.84797119 75.38785645 34.69594238 74.77571289 34.53930664 74.14501953 C33.97883872 71.91583387 33.22409565 69.87576597 32.37109375 67.7421875 C31.90219727 66.55689453 31.90219727 66.55689453 31.42382812 65.34765625 C30.76305119 63.69113428 30.10158613 62.03488665 29.43945312 60.37890625 C28.97249023 59.19748047 28.97249023 59.19748047 28.49609375 57.9921875 C28.20919678 57.27401855 27.9222998 56.55584961 27.62670898 55.81591797 C27 54 27 54 27 52 C26.34 51.67 25.68 51.34 25 51 C23.96976129 48.75771574 23.13977844 46.59301885 22.57324219 44.18945312 C21.25489939 39.15414724 19.14264372 34.34101068 17.25 29.5 C16.81945312 28.35917969 16.38890625 27.21835937 15.9453125 26.04296875 C15.51476562 24.94597656 15.08421875 23.84898437 14.640625 22.71875 C14.25422852 21.71779297 13.86783203 20.71683594 13.46972656 19.68554688 C11.41355227 15.92841776 8.7834096 13.65983043 4.76171875 12.171875 C4.07722656 12.03265625 3.39273437 11.8934375 2.6875 11.75 C1.470625 11.5025 0.25375 11.255 -1 11 C-2.25 3.375 -2.25 3.375 0 0 Z " fill="#070706" transform="translate(442,783)"/>
<path d="M0 0 C1.10514766 3.31544299 1.32107631 6.20410111 1.5625 9.6875 C1.64628906 10.86699219 1.73007812 12.04648437 1.81640625 13.26171875 C1.87699219 14.16535156 1.93757813 15.06898438 2 16 C2.43570313 15.40832031 2.87140625 14.81664062 3.3203125 14.20703125 C8.91549475 6.7831206 15.21813664 -0.56149068 25 -2 C31.35974729 -2.52997894 35.69347364 -1.64750149 41 2 C45.62516782 6.86235592 46.35160744 10.92305727 46.28515625 17.42578125 C45.75278104 22.23174377 43.53624642 25.35402169 40.25 28.875 C36.07243207 30.96378396 31.85319841 31.43097638 27.3125 30.375 C24.41773654 28.6537893 22.37327692 26.37327692 20 24 C19.01 24 18.02 24 17 24 C17 23.34 17 22.68 17 22 C13.31158421 22.25733133 11.30680122 22.77168281 8.3125 25 C2.95463735 31.95074073 2.5488882 39.61905644 2.6015625 48.1328125 C2.59725723 49.68692337 2.59725723 49.68692337 2.59286499 51.27243042 C2.59083489 53.44904125 2.59629042 55.62567077 2.60888672 57.80224609 C2.62498781 61.1224863 2.60898461 64.44151539 2.58984375 67.76171875 C2.59182573 69.88541933 2.59566846 72.00911917 2.6015625 74.1328125 C2.59548981 75.11839142 2.58941711 76.10397034 2.5831604 77.11941528 C2.64098002 82.81437036 3.14223489 87.01564345 6 92 C8.91045118 93.26725611 8.91045118 93.26725611 12.1875 93.4375 C13.27417969 93.55996094 14.36085938 93.68242188 15.48046875 93.80859375 C16.31191406 93.87175781 17.14335937 93.93492187 18 94 C19.08073852 97.24221555 19.21676408 99.60402937 19 103 C17 105 17 105 14.59555054 105.24050903 C13.08331406 105.2338472 13.08331406 105.2338472 11.54052734 105.22705078 C10.39949554 105.22689972 9.25846375 105.22674866 8.08285522 105.22659302 C6.22813095 105.21110916 6.22813095 105.21110916 4.3359375 105.1953125 C3.07359283 105.1924826 1.81124817 105.18965271 0.51065063 105.18673706 C-2.84646944 105.17742131 -6.20331912 105.15944835 -9.56036377 105.1373291 C-12.98553122 105.1168755 -16.41072659 105.1077364 -19.8359375 105.09765625 C-26.55736671 105.07556458 -33.27866773 105.04206377 -40 105 C-40 101.7 -40 98.4 -40 95 C-38.4221875 94.5978125 -38.4221875 94.5978125 -36.8125 94.1875 C-31.99697088 92.79572202 -31.99697088 92.79572202 -28 90 C-26.56599506 85.38927578 -26.96893263 80.680148 -27.49047852 75.9453125 C-28.070097 69.90541658 -28.09341133 63.93774015 -28.02734375 57.875 C-28.01471572 55.60026184 -28.00235347 53.32552218 -27.99023438 51.05078125 C-27.96528731 47.50434612 -27.93710843 43.95799027 -27.90405273 40.41162109 C-27.87397492 36.96190874 -27.85613216 33.51230099 -27.83984375 30.0625 C-27.82638412 28.99692871 -27.8129245 27.93135742 -27.79905701 26.83349609 C-27.79567825 25.84816895 -27.7922995 24.8628418 -27.78881836 23.84765625 C-27.78136093 22.98148682 -27.7739035 22.11531738 -27.76622009 21.22290039 C-27.8562114 18.71233163 -27.8562114 18.71233163 -30 16 C-32.41607417 15.20201782 -32.41607417 15.20201782 -35.125 14.8125 C-36.49011719 14.57466797 -36.49011719 14.57466797 -37.8828125 14.33203125 C-38.93082031 14.16767578 -38.93082031 14.16767578 -40 14 C-40 11.03 -40 8.06 -40 5 C-32.28799144 2.85235205 -24.48062587 1.21112544 -16.625 -0.3125 C-15.67415527 -0.50811523 -14.72331055 -0.70373047 -13.74365234 -0.90527344 C-8.65757106 -1.8619988 -4.76289222 -2.56761779 0 0 Z " fill="#060606" transform="translate(335,783)"/>
<path d="M0 0 C0.01213028 1.68129753 0.01213028 1.68129753 0.02450562 3.39656067 C0.10190904 13.94720429 0.18963355 24.49771803 0.28752708 35.04819202 C0.3375246 40.47261295 0.38385434 45.89701406 0.421875 51.3215332 C0.45868413 56.55411951 0.50503215 61.78654149 0.55806351 67.01898766 C0.57663073 69.01768811 0.59173003 71.01642382 0.60334396 73.01517677 C0.62016659 75.80952495 0.64919187 78.60349486 0.68115234 81.39770508 C0.68331253 82.22848572 0.68547272 83.05926636 0.68769836 83.91522217 C0.74447133 87.78738432 0.80294627 89.70441941 3 93 C5.84714491 93.72895193 5.84714491 93.72895193 9.0625 94.0625 C11.05074948 94.31073567 13.03478037 94.6092715 15 95 C16.26026798 97.52053595 15.91874445 98.8542098 15.5625 101.625 C15.46066406 102.44226563 15.35882812 103.25953125 15.25390625 104.1015625 C15.17011719 104.72804688 15.08632813 105.35453125 15 106 C7.45501767 106.02312851 -0.08996101 106.04091769 -7.63497066 106.05181217 C-11.13808885 106.05703989 -14.64118285 106.0641355 -18.14428711 106.07543945 C-22.16780841 106.08834206 -26.19130414 106.09322912 -30.21484375 106.09765625 C-31.47836166 106.10281754 -32.74187958 106.10797882 -34.04368591 106.11329651 C-35.204814 106.11337204 -36.36594208 106.11344757 -37.56225586 106.11352539 C-39.1044706 106.11685631 -39.1044706 106.11685631 -40.67784119 106.12025452 C-43 106 -43 106 -44 105 C-44.0979057 103.50261876 -44.12974864 102.00057108 -44.125 100.5 C-44.12757813 99.6853125 -44.13015625 98.870625 -44.1328125 98.03125 C-44 96 -44 96 -43 95 C-41.2675 94.7834375 -41.2675 94.7834375 -39.5 94.5625 C-38.345 94.376875 -37.19 94.19125 -36 94 C-35.505 93.01 -35.505 93.01 -35 92 C-32.9375 91.375 -32.9375 91.375 -31 91 C-30.97471181 83.20378306 -30.95715932 75.40757664 -30.94506836 67.61132812 C-30.94002958 64.95735275 -30.93319849 62.30338016 -30.92456055 59.64941406 C-30.91247511 55.84178989 -30.90676725 52.03420231 -30.90234375 48.2265625 C-30.89718246 47.03382721 -30.89202118 45.84109192 -30.88670349 44.61221313 C-30.88662796 43.51122284 -30.88655243 42.41023254 -30.88647461 41.27587891 C-30.884254 40.30325104 -30.88203339 39.33062317 -30.87974548 38.32852173 C-30.84543196 35.97539612 -30.84543196 35.97539612 -32 34 C-31.34 34 -30.68 34 -30 34 C-30.185625 33.443125 -30.37125 32.88625 -30.5625 32.3125 C-31 30 -31 30 -30.5 27.625 C-29.90543599 24.50353897 -30.35357923 22.08845478 -31 19 C-31.99 18.67 -32.98 18.34 -34 18 C-34.33 17.34 -34.66 16.68 -35 16 C-36.99285937 15.62633887 -38.99363529 15.29259485 -41 15 C-42 14 -42 14 -42.09765625 12.15234375 C-42.06510417 10.1015625 -42.03255208 8.05078125 -42 6 C-36.3735758 4.53168777 -30.64629702 3.52794437 -24.9375 2.4375 C-23.75994141 2.20353516 -22.58238281 1.96957031 -21.36914062 1.72851562 C-20.20447266 1.50744141 -19.03980469 1.28636719 -17.83984375 1.05859375 C-16.79175537 0.85548584 -15.74366699 0.65237793 -14.66381836 0.44311523 C-9.76511245 -0.1493517 -4.92772532 -0.08467646 0 0 Z " fill="#070807" transform="translate(730,782)"/>
<path d="M0 0 C1.06863281 0.00676758 2.13726562 0.01353516 3.23828125 0.02050781 C4.04652344 0.02920898 4.85476563 0.03791016 5.6875 0.046875 C5.68527939 0.65819778 5.68305878 1.26952057 5.68077087 1.89936829 C5.50596036 37.71234581 5.50596036 37.71234581 5.89602661 73.52206421 C5.92353157 74.98925837 5.94433476 76.45659447 5.95822144 77.92398071 C5.97907099 79.92747525 6.02778397 81.93062324 6.078125 83.93359375 C6.09907227 85.02889404 6.12001953 86.12419434 6.14160156 87.25268555 C6.81397589 90.69424375 7.96869565 91.89909883 10.6875 94.046875 C12.76505133 94.69277106 12.76505133 94.69277106 14.875 94.734375 C18.6875 95.046875 18.6875 95.046875 19.6875 96.046875 C20.70096983 101.8512931 20.70096983 101.8512931 20.6875 104.046875 C18.6875 106.046875 18.6875 106.046875 16.33447266 106.29411316 C15.3501123 106.29268814 14.36575195 106.29126312 13.3515625 106.28979492 C12.23700684 106.29287155 11.12245117 106.29594818 9.97412109 106.29911804 C8.76578613 106.29193253 7.55745117 106.28474701 6.3125 106.27734375 C5.07709473 106.27688553 3.84168945 106.27642731 2.56884766 106.2759552 C-0.71842229 106.27215337 -4.00550012 106.25913408 -7.29272461 106.24249268 C-10.63786066 106.22904825 -13.98296285 106.2322168 -17.328125 106.23242188 C-19.86458534 106.22750602 -22.4010441 106.22167741 -24.9375 106.21484375 C-26.14583496 106.21373093 -27.35416992 106.2126181 -28.59912109 106.21147156 C-29.71367676 106.20509171 -30.82823242 106.19871185 -31.9765625 106.19213867 C-32.96092285 106.18832687 -33.9452832 106.18451508 -34.95947266 106.18058777 C-37.3125 106.046875 -37.3125 106.046875 -39.3125 105.046875 C-40.125 103.171875 -40.125 103.171875 -40.3125 101.046875 C-38.875 99.296875 -38.875 99.296875 -37.3125 98.046875 C-38.3025 97.716875 -39.2925 97.386875 -40.3125 97.046875 C-39.3225 97.046875 -38.3325 97.046875 -37.3125 97.046875 C-37.3125 96.386875 -37.3125 95.726875 -37.3125 95.046875 C-36.54164063 94.92570313 -35.77078125 94.80453125 -34.9765625 94.6796875 C-33.97367187 94.51210938 -32.97078125 94.34453125 -31.9375 94.171875 C-30.93976563 94.00945312 -29.94203125 93.84703125 -28.9140625 93.6796875 C-26.1699885 93.2509948 -26.1699885 93.2509948 -24.3125 91.046875 C-23.80744705 87.79839509 -23.80744705 87.79839509 -23.625 84.109375 C-23.53863281 82.86285156 -23.45226562 81.61632812 -23.36328125 80.33203125 C-23.13119038 77.03938254 -23.13119038 77.03938254 -24.3125 74.046875 C-23.9825 73.716875 -23.6525 73.386875 -23.3125 73.046875 C-23.4775 72.0775 -23.6425 71.108125 -23.8125 70.109375 C-24.3125 67.046875 -24.3125 67.046875 -23.3125 65.046875 C-23.54605198 63.129917 -23.78428513 61.21334701 -24.05252075 59.30093384 C-24.47658255 55.62425479 -24.39555053 51.97295282 -24.33984375 48.27734375 C-24.32721385 46.63086135 -24.31485172 44.98437688 -24.30273438 43.33789062 C-24.27780826 40.7724748 -24.24964901 38.20716962 -24.21655273 35.6418457 C-24.1864286 33.14533773 -24.16861671 30.64897487 -24.15234375 28.15234375 C-24.13888412 27.38359421 -24.1254245 26.61484467 -24.11155701 25.82279968 C-24.09352783 22.00902521 -24.1428559 20.30134115 -26.3125 17.046875 C-29.39615871 16.7966593 -29.39615871 16.7966593 -32.3125 17.046875 C-32.3125 16.386875 -32.3125 15.726875 -32.3125 15.046875 C-33.6325 15.046875 -34.9525 15.046875 -36.3125 15.046875 C-37.7908226 12.09022981 -37.37282783 9.30457763 -37.3125 6.046875 C-31.45839113 4.86486977 -25.60198572 3.69506221 -19.74365234 2.53417969 C-17.81227546 2.14705092 -15.88404674 1.7442225 -13.95703125 1.3359375 C-9.23921226 0.37425505 -4.82311946 -0.03975098 0 0 Z " fill="#060606" transform="translate(424.3125,781.953125)"/>
<path d="M0 0 C6.8805776 5.45034518 10.60833352 12.34425303 11.7734375 21.02734375 C12.15754423 29.27981861 9.82301662 36.33909904 4.55078125 42.70703125 C-2.31172253 49.73544172 -9.45774778 52.13805101 -19.2265625 52.52734375 C-26.38449461 52.16662906 -32.68314054 48.960199 -38.2265625 44.52734375 C-44.51643972 37.27777392 -46.7276665 30.13771411 -46.5390625 20.625 C-45.74441936 12.74809985 -42.23446883 5.71659031 -36.2265625 0.52734375 C-24.53717855 -7.29946116 -11.95517961 -7.90719774 0 0 Z " fill="#030404" transform="translate(474.2265625,655.47265625)"/>
<path d="M0 0 C5.1087903 4.61037173 8.15431125 8.7068327 8.9375 15.625 C8.34545233 21.44680209 6.30818224 25.65410188 2.0625 29.6875 C-3.82393762 33.51368446 -8.43355351 34.11606893 -15.4375 33.3125 C-20.28861567 31.66880696 -23.72859048 28.62668923 -26.4375 24.3125 C-28.91820802 18.44900831 -28.39071304 14.17213912 -26.4375 8.3125 C-24.41356914 3.75865557 -21.70909165 1.8042618 -17.4375 -0.6875 C-11.62364524 -2.62545159 -5.51641224 -2.70805692 0 0 Z " fill="#060606" transform="translate(724.4375,734.6875)"/>
<path d="M0 0 C4.3676176 2.54260903 6.9609687 5.75599887 8.6875 10.5 C9.6804597 16.09150259 9.43133206 20.93085443 6.625 25.9375 C3.89875083 29.6357823 1.13940465 32.17691058 -3.3125 33.5 C-9.57021045 34.29246115 -14.98575534 34.17799036 -20.3125 30.5 C-24.25863416 27.18165991 -26.35027612 24.59978659 -27.3125 19.5 C-27.39487291 13.18817613 -26.67845895 8.31374961 -22.3125 3.5 C-15.62552983 -2.32214262 -8.22110826 -3.45255582 0 0 Z " fill="#050505" transform="translate(424.3125,734.5)"/>
<path d="M0 0 C4.57155455 0.44105227 9.14416982 0.38527799 13.73324871 0.37587357 C14.80301449 0.37762589 15.87278027 0.3793782 16.97496319 0.38118362 C20.48465923 0.38555702 23.99430417 0.38267903 27.50400066 0.37929153 C29.96484162 0.37996612 32.42568252 0.38093743 34.88652325 0.3821907 C40.03661008 0.38366179 45.18667953 0.381533 50.33676434 0.37685013 C56.90184804 0.37116827 63.46689071 0.37442583 70.03197289 0.38042259 C75.11352624 0.38405699 80.19507007 0.3828762 85.27662373 0.3802948 C87.69526264 0.37963269 90.11390245 0.3804286 92.53254032 0.38277435 C109.6455614 0.40127668 109.6455614 0.40127668 126.72233868 -0.57606125 C129.98000793 -0.78016245 132.99580558 -0.55350403 136.21493816 -0.07773972 C139.34099067 0.35541948 142.47039441 0.57524896 145.61728191 0.80897903 C147.30530926 0.93466263 147.30530926 0.93466263 149.02743816 1.06288528 C149.8614616 1.12347122 150.69548504 1.18405716 151.55478191 1.24647903 C151.55478191 3.55647903 151.55478191 5.86647903 151.55478191 8.24647903 C151.22478191 8.24647903 150.89478191 8.24647903 150.55478191 8.24647903 C150.55478191 6.26647903 150.55478191 4.28647903 150.55478191 2.24647903 C61.12478191 2.24647903 -28.30521809 2.24647903 -120.44521809 2.24647903 C-120.44521809 4.22647903 -120.44521809 6.20647903 -120.44521809 8.24647903 C-120.77521809 8.24647903 -121.10521809 8.24647903 -121.44521809 8.24647903 C-121.48763532 5.91353128 -121.48614746 3.57945337 -121.44521809 1.24647903 C-120.44521809 0.24647903 -120.44521809 0.24647903 -117.01829243 0.13295364 C-115.45461873 0.13310356 -113.89094028 0.13888346 -112.32729816 0.14882278 C-111.47491566 0.15028305 -110.62253315 0.15174332 -109.74432087 0.15324783 C-107.88257303 0.15706689 -106.02082887 0.16319698 -104.15909481 0.17131424 C-101.19152956 0.18407891 -98.22400915 0.19059664 -95.25642109 0.19545364 C-87.86482179 0.20883502 -80.47326343 0.23270698 -73.0816927 0.25685501 C-66.86851121 0.27682458 -60.65534725 0.29238181 -54.44214153 0.30241776 C-51.5568895 0.30877599 -48.67171022 0.32129626 -45.7864809 0.33412552 C-35.50835667 0.36111733 -25.28596395 0.1606982 -15.02557564 -0.48885727 C-9.90713602 -0.77968719 -5.08972783 -0.58699715 0 0 Z " fill="#393937" transform="translate(489.4452180862427,227.75352096557617)"/>
<path d="M0 0 C3.1990131 0.41617255 6.40031281 0.6480474 9.6171875 0.88671875 C11.29167969 1.01240234 11.29167969 1.01240234 13 1.140625 C13.82242188 1.20121094 14.64484375 1.26179687 15.4921875 1.32421875 C15.4921875 3.63421875 15.4921875 5.94421875 15.4921875 8.32421875 C15.1621875 8.32421875 14.8321875 8.32421875 14.4921875 8.32421875 C14.4921875 6.34421875 14.4921875 4.36421875 14.4921875 2.32421875 C-17.1878125 2.32421875 -48.8678125 2.32421875 -81.5078125 2.32421875 C-81.5078125 1.99421875 -81.5078125 1.66421875 -81.5078125 1.32421875 C-80.83146255 1.31391129 -80.15511261 1.30360382 -79.45826721 1.29298401 C-72.33497785 1.18369803 -65.21178457 1.0692208 -58.08862305 0.9519043 C-55.44020523 0.90854027 -52.7917788 0.86724466 -50.14331055 0.8269043 C-30.40637472 0.53987398 -30.40637472 0.53987398 -10.69995117 -0.51342773 C-7.05406168 -0.69885921 -3.61104008 -0.48105551 0 0 Z " fill="#30302F" transform="translate(625.5078125,227.67578125)"/>
<path d="M0 0 C2.64 0 5.28 0 8 0 C8 0.33 8 0.66 8 1 C5.69 1 3.38 1 1 1 C1 3.64 1 6.28 1 9 C18.16 9 35.32 9 53 9 C52.67 9.66 52.34 10.32 52 11 C44.63102956 11.0252908 37.26207026 11.04284179 29.89306641 11.05493164 C27.38459861 11.05997003 24.87613376 11.06680084 22.36767578 11.07543945 C18.7685473 11.08752661 15.16945753 11.09323315 11.5703125 11.09765625 C9.87964157 11.10539818 9.87964157 11.10539818 8.15481567 11.11329651 C7.11388763 11.11337204 6.07295959 11.11344757 5.00048828 11.11352539 C4.08115509 11.115746 3.1618219 11.11796661 2.21463013 11.12025452 C0 11 0 11 -2 10 C-2.8125 8.125 -2.8125 8.125 -3 6 C-1.5625 4.25 -1.5625 4.25 0 3 C-0.99 2.67 -1.98 2.34 -3 2 C-2.01 2 -1.02 2 0 2 C0 1.34 0 0.68 0 0 Z " fill="#2D2D2B" transform="translate(387,877)"/>
<path d="M0 0 C0.66 0.33 1.32 0.66 2 1 C-1.84135913 4.93330656 -5.69449326 8.80024016 -9.875 12.375 C-14.84921847 16.64569355 -19.40943584 21.32477379 -24 26 C-24.66 25.67 -25.32 25.34 -26 25 C-24.71937515 23.2925002 -23.38232443 21.62626404 -22 20 C-21.34 20 -20.68 20 -20 20 C-19.62875 19.071875 -19.62875 19.071875 -19.25 18.125 C-17.79371361 15.64931313 -16.62187494 15.04874998 -14 14 C-14 13.34 -14 12.68 -14 12 C-12.4609375 10.44921875 -12.4609375 10.44921875 -10.375 8.6875 C-9.65054687 8.07132813 -8.92609375 7.45515625 -8.1796875 6.8203125 C-7.46039063 6.21960938 -6.74109375 5.61890625 -6 5 C-5.38382812 4.48179687 -4.76765625 3.96359375 -4.1328125 3.4296875 C-2.76024877 2.28041165 -1.3809017 1.1392439 0 0 Z " fill="#242423" transform="translate(333,180)"/>
<path d="M0 0 C0.66 0.33 1.32 0.66 2 1 C-0.97 3.97 -3.94 6.94 -7 10 C-7.33 9.34 -7.66 8.68 -8 8 C-3.375 2.25 -3.375 2.25 0 0 Z " fill="#222121" transform="translate(768,790)"/>
<path d="M0 0 C0.66 0.33 1.32 0.66 2 1 C-0.64 3.64 -3.28 6.28 -6 9 C-6.33 8.34 -6.66 7.68 -7 7 C-2.25 1.125 -2.25 1.125 0 0 Z " fill="#252624" transform="translate(406,735)"/>
<path d="M0 0 C0.66 0.33 1.32 0.66 2 1 C-0.64 3.64 -3.28 6.28 -6 9 C-6.66 8.67 -7.32 8.34 -8 8 C-3.375 2.25 -3.375 2.25 0 0 Z " fill="#212220" transform="translate(441,654)"/>
<path d="M0 0 C0.66 0.33 1.32 0.66 2 1 C-0.97 3.97 -3.94 6.94 -7 10 C-7 6.04435836 -5.59478606 4.89133304 -3 2 C-2.01 1.34 -1.02 0.68 0 0 Z " fill="#282726" transform="translate(764,840)"/>
<path d="M0 0 C-0.928125 0.3403125 -0.928125 0.3403125 -1.875 0.6875 C-4.61410209 2.37929835 -5.05024472 3.99244161 -6 7 C-6.33 7 -6.66 7 -7 7 C-7 4.69 -7 2.38 -7 0 C-3.86650268 -1.04449911 -3.01031744 -0.93423645 0 0 Z " fill="#353432" transform="translate(394,788)"/>
<path d="M0 0 C0.33 0 0.66 0 1 0 C1 1.98 1 3.96 1 6 C0.67 6 0.34 6 0 6 C0 4.02 0 2.04 0 0 Z " fill="#323331" transform="translate(204,802)"/>
<path d="M0 0 C0.33 0 0.66 0 1 0 C1 1.98 1 3.96 1 6 C0.67 6 0.34 6 0 6 C0 4.02 0 2.04 0 0 Z " fill="#33332F" transform="translate(204,786)"/>
<path d="M0 0 C0.33 0 0.66 0 1 0 C1 1.65 1 3.3 1 5 C0.67 5 0.34 5 0 5 C0 3.35 0 1.7 0 0 Z " fill="#333431" transform="translate(204,779)"/>
<path d="M0 0 C0.33 0 0.66 0 1 0 C1 1.65 1 3.3 1 5 C0.67 5 0.34 5 0 5 C0 3.35 0 1.7 0 0 Z " fill="#2F302E" transform="translate(360,289)"/>
<path d="M0 0 C1 4 1 4 1 4 Z " fill="#363633" transform="translate(204,852)"/>
<path d="M0 0 C0.33 0.99 0.66 1.98 1 3 C0.34 2.67 -0.32 2.34 -1 2 C-0.67 1.34 -0.34 0.68 0 0 Z " fill="#2B2B29" transform="translate(509,848)"/>
<path d="M0 0 C0.99 0.33 1.98 0.66 3 1 C2.01 1.33 1.02 1.66 0 2 C0 1.34 0 0.68 0 0 Z " fill="#30302F" transform="translate(760,840)"/>
<path d="M0 0 C0.66 0.66 1.32 1.32 2 2 C1.01 2.495 1.01 2.495 0 3 C0 2.01 0 1.02 0 0 Z " fill="#2D2D2B" transform="translate(465,831)"/>
<path d="M0 0 C1 4 1 4 1 4 Z " fill="#363633" transform="translate(204,828)"/>
<path d="M0 0 C1 4 1 4 1 4 Z " fill="#323431" transform="translate(204,814)"/>
<path d="M0 0 C1 4 1 4 1 4 Z " fill="#30312E" transform="translate(577,803)"/>
<path d="M0 0 C1 4 1 4 1 4 Z " fill="#333332" transform="translate(204,793)"/>
<path d="M0 0 C1 4 1 4 1 4 Z " fill="#323331" transform="translate(204,774)"/>
<path d="M0 0 C1 4 1 4 1 4 Z " fill="#323331" transform="translate(204,769)"/>
<path d="M0 0 C1 4 1 4 1 4 Z " fill="#2D2C2B" transform="translate(713,301)"/>
<path d="M0 0 C0.99 0.495 0.99 0.495 2 1 C1.67 1.66 1.34 2.32 1 3 C0.67 2.01 0.34 1.02 0 0 Z " fill="#2E2D2A" transform="translate(684,237)"/>
<path d="" fill="#373734" transform="translate(0,0)"/>
<path d="M0 0 C0.66 0.66 1.32 1.32 2 2 C1.34 2 0.68 2 0 2 C0 1.34 0 0.68 0 0 Z " fill="#312F2D" transform="translate(809,878)"/>
<path d="M0 0 C3 1 3 1 3 1 Z " fill="#31302F" transform="translate(341,874)"/>
<path d="" fill="#343533" transform="translate(0,0)"/>
<path d="" fill="#302F2D" transform="translate(0,0)"/>
<path d="" fill="#353533" transform="translate(0,0)"/>
<path d="M0 0 C3 1 3 1 3 1 Z " fill="#323232" transform="translate(777,832)"/>
<path d="M0 0 C0.33 0.66 0.66 1.32 1 2 C0.34 1.67 -0.32 1.34 -1 1 C-0.67 0.67 -0.34 0.34 0 0 Z " fill="#373534" transform="translate(692,784)"/>
<path d="" fill="#32322F" transform="translate(0,0)"/>
<path d="M0 0 C0.66 0.66 1.32 1.32 2 2 C1.34 2 0.68 2 0 2 C0 1.34 0 0.68 0 0 Z " fill="#2E2F2E" transform="translate(468,630)"/>
<path d="M0 0 C0.33 0.66 0.66 1.32 1 2 C0.34 1.67 -0.32 1.34 -1 1 C-0.67 0.67 -0.34 0.34 0 0 Z " fill="#323232" transform="translate(465,628)"/>
<path d="M0 0 C0.99 0.495 0.99 0.495 2 1 C1.01 1.495 1.01 1.495 0 2 C0 1.34 0 0.68 0 0 Z " fill="#31302D" transform="translate(596,605)"/>
<path d="M0 0 C3 1 3 1 3 1 Z " fill="#2C2D2A" transform="translate(527,600)"/>
<path d="M0 0 C0.66 0 1.32 0 2 0 C1.67 0.66 1.34 1.32 1 2 C0.67 1.34 0.34 0.68 0 0 Z " fill="#30312E" transform="translate(597,560)"/>
<path d="M0 0 C0.66 0.66 1.32 1.32 2 2 C1.34 2 0.68 2 0 2 C0 1.34 0 0.68 0 0 Z " fill="#30312E" transform="translate(435,520)"/>
<path d="M0 0 C0.33 0.66 0.66 1.32 1 2 C0.34 1.67 -0.32 1.34 -1 1 C-0.67 0.67 -0.34 0.34 0 0 Z " fill="#333231" transform="translate(289,475)"/>
<path d="M0 0 C0.66 0 1.32 0 2 0 C1.67 0.66 1.34 1.32 1 2 C0.67 1.34 0.34 0.68 0 0 Z " fill="#32312E" transform="translate(274,451)"/>
<path d="" fill="#353532" transform="translate(0,0)"/>
<path d="" fill="#2E2E2B" transform="translate(0,0)"/>
<path d="M0 0 C0.66 0.66 1.32 1.32 2 2 C1.34 2 0.68 2 0 2 C0 1.34 0 0.68 0 0 Z " fill="#373735" transform="translate(300,208)"/>
<path d="M0 0 C3 1 3 1 3 1 Z " fill="#2F2E2B" transform="translate(563,166)"/>
<path d="M0 0 C3 1 3 1 3 1 Z " fill="#2F2F2E" transform="translate(597,136)"/>
<path d="M0 0 C2 1 2 1 2 1 Z " fill="#343536" transform="translate(796,887)"/>
<path d="" fill="#353331" transform="translate(0,0)"/>
<path d="M0 0 C2 1 2 1 2 1 Z " fill="#31302F" transform="translate(481,874)"/>
<path d="M0 0 C2 1 2 1 2 1 Z " fill="#302F2D" transform="translate(396,874)"/>
<path d="M0 0 C2 1 2 1 2 1 Z " fill="#31302F" transform="translate(733,873)"/>
<path d="" fill="#333130" transform="translate(0,0)"/>
<path d="M0 0 C2 1 2 1 2 1 Z " fill="#2E2F2D" transform="translate(244,873)"/>
<path d="M0 0 C2 1 2 1 2 1 Z " fill="#333130" transform="translate(480,872)"/>
<path d="M0 0 C2 1 2 1 2 1 Z " fill="#323230" transform="translate(304,869)"/>
<path d="" fill="#393A39" transform="translate(0,0)"/>
<path d="" fill="#353534" transform="translate(0,0)"/>
<path d="" fill="#31302E" transform="translate(0,0)"/>
<path d="" fill="#2B2A29" transform="translate(0,0)"/>
<path d="" fill="#343534" transform="translate(0,0)"/>
<path d="M0 0 C2 1 2 1 2 1 Z " fill="#353533" transform="translate(769,835)"/>
<path d="M0 0 C2 1 2 1 2 1 Z " fill="#353532" transform="translate(775,833)"/>
<path d="" fill="#343533" transform="translate(0,0)"/>
<path d="" fill="#373534" transform="translate(0,0)"/>
<path d="" fill="#333430" transform="translate(0,0)"/>
<path d="" fill="#343333" transform="translate(0,0)"/>
<path d="" fill="#2C2B2A" transform="translate(0,0)"/>
<path d="" fill="#2F2F2D" transform="translate(0,0)"/>
<path d="" fill="#2E2D2B" transform="translate(0,0)"/>
<path d="" fill="#333231" transform="translate(0,0)"/>
<path d="M0 0 C2 1 2 1 2 1 Z " fill="#32322F" transform="translate(494,795)"/>
<path d="M0 0 C2 1 2 1 2 1 Z " fill="#333130" transform="translate(392,785)"/>
<path d="M0 0 C2 1 2 1 2 1 Z " fill="#353432" transform="translate(689,784)"/>
<path d="" fill="#343433" transform="translate(0,0)"/>
<path d="" fill="#343230" transform="translate(0,0)"/>
<path d="" fill="#373634" transform="translate(0,0)"/>
<path d="M0 0 C2 1 2 1 2 1 Z " fill="#2E2E2C" transform="translate(197,751)"/>
<path d="" fill="#2A2C29" transform="translate(0,0)"/>
<path d="M0 0 C2 1 2 1 2 1 Z " fill="#2D2B2C" transform="translate(560,584)"/>
<path d="M0 0 C2 1 2 1 2 1 Z " fill="#2E2E2C" transform="translate(574,576)"/>
<path d="M0 0 C2 1 2 1 2 1 Z " fill="#2E2D2D" transform="translate(608,552)"/>
<path d="" fill="#31312E" transform="translate(0,0)"/>
<path d="M0 0 C2 1 2 1 2 1 Z " fill="#2F312F" transform="translate(627,537)"/>
<path d="" fill="#30312E" transform="translate(0,0)"/>
<path d="M0 0 C2 1 2 1 2 1 Z " fill="#31312D" transform="translate(336,523)"/>
<path d="M0 0 C2 1 2 1 2 1 Z " fill="#323331" transform="translate(402,514)"/>
<path d="M0 0 C2 1 2 1 2 1 Z " fill="#333230" transform="translate(541,499)"/>
<path d="M0 0 C2 1 2 1 2 1 Z " fill="#2D2C2A" transform="translate(501,499)"/>
<path d="M0 0 C2 1 2 1 2 1 Z " fill="#2B2B2A" transform="translate(477,499)"/>
<path d="" fill="#373836" transform="translate(0,0)"/>
<path d="" fill="#353735" transform="translate(0,0)"/>
<path d="" fill="#2C2D2A" transform="translate(0,0)"/>
<path d="" fill="#2F2E2E" transform="translate(0,0)"/>
<path d="" fill="#2D2C2A" transform="translate(0,0)"/>
<path d="" fill="#323230" transform="translate(0,0)"/>
<path d="" fill="#343633" transform="translate(0,0)"/>
<path d="" fill="#353533" transform="translate(0,0)"/>
<path d="" fill="#32322F" transform="translate(0,0)"/>
<path d="" fill="#363633" transform="translate(0,0)"/>
<path d="" fill="#2F302D" transform="translate(0,0)"/>
<path d="" fill="#2E2D2D" transform="translate(0,0)"/>
<path d="" fill="#333433" transform="translate(0,0)"/>
<path d="" fill="#2F2E2B" transform="translate(0,0)"/>
<path d="" fill="#2F312F" transform="translate(0,0)"/>
<path d="" fill="#2F2F2D" transform="translate(0,0)"/>
<path d="" fill="#2C2C2B" transform="translate(0,0)"/>
<path d="M0 0 C2 1 2 1 2 1 Z " fill="#2D2C2B" transform="translate(595,269)"/>
<path d="M0 0 C2 1 2 1 2 1 Z " fill="#302E2C" transform="translate(433,254)"/>
<path d="" fill="#2E2E2C" transform="translate(0,0)"/>
<path d="M0 0 C2 1 2 1 2 1 Z " fill="#353533" transform="translate(308,200)"/>
<path d="M0 0 C2 1 2 1 2 1 Z " fill="#30302D" transform="translate(470,163)"/>
<path d="M0 0 C2 1 2 1 2 1 Z " fill="#353734" transform="translate(359,160)"/>
<path d="M0 0 C2 1 2 1 2 1 Z " fill="#353534" transform="translate(481,123)"/>
<path d="M0 0 C2 1 2 1 2 1 Z " fill="#353632" transform="translate(513,122)"/>
<path d="" fill="#333533" transform="translate(0,0)"/>
<path d="" fill="#373637" transform="translate(0,0)"/>
<path d="" fill="#363734" transform="translate(0,0)"/>
<path d="" fill="#363534" transform="translate(0,0)"/>
<path d="" fill="#373534" transform="translate(0,0)"/>
<path d="" fill="#373536" transform="translate(0,0)"/>
<path d="" fill="#353633" transform="translate(0,0)"/>
<path d="" fill="#524F4F" transform="translate(0,0)"/>
<path d="" fill="#363534" transform="translate(0,0)"/>
<path d="" fill="#343230" transform="translate(0,0)"/>
<path d="" fill="#333331" transform="translate(0,0)"/>
<path d="" fill="#474643" transform="translate(0,0)"/>
<path d="" fill="#323130" transform="translate(0,0)"/>
<path d="" fill="#363533" transform="translate(0,0)"/>
<path d="" fill="#30302C" transform="translate(0,0)"/>
<path d="" fill="#32302E" transform="translate(0,0)"/>
<path d="" fill="#343430" transform="translate(0,0)"/>
<path d="" fill="#333330" transform="translate(0,0)"/>
<path d="" fill="#343431" transform="translate(0,0)"/>
<path d="" fill="#302E2D" transform="translate(0,0)"/>
<path d="" fill="#4B4748" transform="translate(0,0)"/>
<path d="" fill="#343533" transform="translate(0,0)"/>
<path d="" fill="#343331" transform="translate(0,0)"/>
<path d="" fill="#474544" transform="translate(0,0)"/>
<path d="" fill="#32312F" transform="translate(0,0)"/>
<path d="" fill="#31302E" transform="translate(0,0)"/>
<path d="" fill="#31302F" transform="translate(0,0)"/>
<path d="" fill="#312F2C" transform="translate(0,0)"/>
<path d="" fill="#30302F" transform="translate(0,0)"/>
<path d="" fill="#302F2E" transform="translate(0,0)"/>
<path d="" fill="#313030" transform="translate(0,0)"/>
<path d="" fill="#322E2F" transform="translate(0,0)"/>
<path d="" fill="#323331" transform="translate(0,0)"/>
<path d="" fill="#2F3130" transform="translate(0,0)"/>
<path d="" fill="#313430" transform="translate(0,0)"/>
<path d="" fill="#303131" transform="translate(0,0)"/>
<path d="" fill="#393735" transform="translate(0,0)"/>
<path d="" fill="#32302E" transform="translate(0,0)"/>
<path d="" fill="#323131" transform="translate(0,0)"/>
<path d="" fill="#32302F" transform="translate(0,0)"/>
<path d="" fill="#2F2E2F" transform="translate(0,0)"/>
<path d="" fill="#323030" transform="translate(0,0)"/>
<path d="" fill="#373536" transform="translate(0,0)"/>
<path d="" fill="#252423" transform="translate(0,0)"/>
<path d="" fill="#2C2A28" transform="translate(0,0)"/>
<path d="" fill="#2E2E2C" transform="translate(0,0)"/>
<path d="" fill="#302F2F" transform="translate(0,0)"/>
<path d="" fill="#2C2D2C" transform="translate(0,0)"/>
<path d="" fill="#363434" transform="translate(0,0)"/>
<path d="" fill="#312F2D" transform="translate(0,0)"/>
<path d="" fill="#31302F" transform="translate(0,0)"/>
<path d="" fill="#333332" transform="translate(0,0)"/>
<path d="" fill="#313233" transform="translate(0,0)"/>
<path d="" fill="#30302F" transform="translate(0,0)"/>
<path d="" fill="#2F2E2B" transform="translate(0,0)"/>
<path d="" fill="#2E2E2C" transform="translate(0,0)"/>
<path d="" fill="#2B2A2A" transform="translate(0,0)"/>
<path d="" fill="#32312F" transform="translate(0,0)"/>
<path d="" fill="#333132" transform="translate(0,0)"/>
<path d="" fill="#2B2A26" transform="translate(0,0)"/>
<path d="" fill="#333431" transform="translate(0,0)"/>
<path d="" fill="#2E2D2E" transform="translate(0,0)"/>
<path d="" fill="#31302E" transform="translate(0,0)"/>
<path d="" fill="#333330" transform="translate(0,0)"/>
<path d="" fill="#313231" transform="translate(0,0)"/>
<path d="" fill="#333331" transform="translate(0,0)"/>
<path d="" fill="#343433" transform="translate(0,0)"/>
<path d="" fill="#32332F" transform="translate(0,0)"/>
<path d="" fill="#2C2D2A" transform="translate(0,0)"/>
<path d="" fill="#2D2E2B" transform="translate(0,0)"/>
<path d="" fill="#313130" transform="translate(0,0)"/>
<path d="" fill="#353431" transform="translate(0,0)"/>
<path d="" fill="#31322F" transform="translate(0,0)"/>
<path d="" fill="#3D3F3D" transform="translate(0,0)"/>
<path d="" fill="#2B2C2B" transform="translate(0,0)"/>
<path d="" fill="#30322F" transform="translate(0,0)"/>
<path d="" fill="#31322E" transform="translate(0,0)"/>
<path d="" fill="#333432" transform="translate(0,0)"/>
<path d="" fill="#312F2F" transform="translate(0,0)"/>
<path d="" fill="#333234" transform="translate(0,0)"/>
<path d="" fill="#343030" transform="translate(0,0)"/>
<path d="" fill="#312F2D" transform="translate(0,0)"/>
<path d="" fill="#353533" transform="translate(0,0)"/>
<path d="" fill="#343231" transform="translate(0,0)"/>
<path d="" fill="#33332E" transform="translate(0,0)"/>
<path d="" fill="#302F2E" transform="translate(0,0)"/>
<path d="" fill="#322F2F" transform="translate(0,0)"/>
<path d="" fill="#373633" transform="translate(0,0)"/>
<path d="" fill="#313531" transform="translate(0,0)"/>
<path d="" fill="#31302D" transform="translate(0,0)"/>
<path d="" fill="#353534" transform="translate(0,0)"/>
<path d="" fill="#343331" transform="translate(0,0)"/>
<path d="" fill="#353534" transform="translate(0,0)"/>
<path d="" fill="#33322F" transform="translate(0,0)"/>
<path d="" fill="#32332F" transform="translate(0,0)"/>
<path d="" fill="#464640" transform="translate(0,0)"/>
<path d="" fill="#302F2E" transform="translate(0,0)"/>
<path d="" fill="#32302E" transform="translate(0,0)"/>
<path d="" fill="#333432" transform="translate(0,0)"/>
<path d="" fill="#373634" transform="translate(0,0)"/>
<path d="" fill="#333330" transform="translate(0,0)"/>
<path d="" fill="#343333" transform="translate(0,0)"/>
<path d="" fill="#302F2D" transform="translate(0,0)"/>
<path d="" fill="#32302E" transform="translate(0,0)"/>
<path d="" fill="#343331" transform="translate(0,0)"/>
<path d="" fill="#454442" transform="translate(0,0)"/>
<path d="" fill="#34332F" transform="translate(0,0)"/>
<path d="" fill="#444440" transform="translate(0,0)"/>
<path d="" fill="#42423E" transform="translate(0,0)"/>
<path d="" fill="#434340" transform="translate(0,0)"/>
<path d="" fill="#323031" transform="translate(0,0)"/>
<path d="" fill="#3A3A38" transform="translate(0,0)"/>
<path d="" fill="#353431" transform="translate(0,0)"/>
<path d="" fill="#3C3A3A" transform="translate(0,0)"/>
<path d="" fill="#3A393A" transform="translate(0,0)"/>
<path d="" fill="#333131" transform="translate(0,0)"/>
<path d="" fill="#333232" transform="translate(0,0)"/>
<path d="" fill="#363533" transform="translate(0,0)"/>
<path d="" fill="#393535" transform="translate(0,0)"/>
<path d="" fill="#363533" transform="translate(0,0)"/>
<path d="" fill="#363735" transform="translate(0,0)"/>
<path d="" fill="#393835" transform="translate(0,0)"/>
<path d="" fill="#454642" transform="translate(0,0)"/>
<path d="" fill="#3A3B38" transform="translate(0,0)"/>
<path d="" fill="#383936" transform="translate(0,0)"/>
<path d="" fill="#3B3A38" transform="translate(0,0)"/>
<path d="" fill="#393835" transform="translate(0,0)"/>
<path d="" fill="#353231" transform="translate(0,0)"/>
<path d="" fill="#393B36" transform="translate(0,0)"/>
<path d="" fill="#353534" transform="translate(0,0)"/>
<path d="" fill="#363631" transform="translate(0,0)"/>
<path d="" fill="#313432" transform="translate(0,0)"/>
<path d="" fill="#373634" transform="translate(0,0)"/>
<path d="" fill="#383835" transform="translate(0,0)"/>
<path d="" fill="#32332F" transform="translate(0,0)"/>
<path d="" fill="#373532" transform="translate(0,0)"/>
<path d="" fill="#32342F" transform="translate(0,0)"/>
<path d="" fill="#363533" transform="translate(0,0)"/>
<path d="" fill="#31312F" transform="translate(0,0)"/>
<path d="" fill="#313430" transform="translate(0,0)"/>
<path d="" fill="#343133" transform="translate(0,0)"/>
<path d="" fill="#323431" transform="translate(0,0)"/>
<path d="" fill="#373633" transform="translate(0,0)"/>
<path d="" fill="#343232" transform="translate(0,0)"/>
<path d="" fill="#2C2D2C" transform="translate(0,0)"/>
<path d="" fill="#474742" transform="translate(0,0)"/>
<path d="" fill="#383635" transform="translate(0,0)"/>
<path d="" fill="#3A3938" transform="translate(0,0)"/>
<path d="" fill="#3B3A38" transform="translate(0,0)"/>
<path d="" fill="#3A3937" transform="translate(0,0)"/>
<path d="" fill="#4E514C" transform="translate(0,0)"/>
<path d="" fill="#3F3C3A" transform="translate(0,0)"/>
<path d="" fill="#353635" transform="translate(0,0)"/>
<path d="" fill="#343631" transform="translate(0,0)"/>
<path d="" fill="#3D3E3B" transform="translate(0,0)"/>
<path d="" fill="#3D3C37" transform="translate(0,0)"/>
<path d="" fill="#3B3B37" transform="translate(0,0)"/>
<path d="" fill="#3E3D39" transform="translate(0,0)"/>
<path d="" fill="#3F3C3C" transform="translate(0,0)"/>
<path d="" fill="#3A3936" transform="translate(0,0)"/>
<path d="" fill="#3E3E3C" transform="translate(0,0)"/>
<path d="" fill="#383834" transform="translate(0,0)"/>
<path d="" fill="#373636" transform="translate(0,0)"/>
<path d="" fill="#383735" transform="translate(0,0)"/>
<path d="" fill="#373735" transform="translate(0,0)"/>
<path d="" fill="#333533" transform="translate(0,0)"/>
<path d="" fill="#363634" transform="translate(0,0)"/>
<path d="" fill="#323532" transform="translate(0,0)"/>
<path d="" fill="#303030" transform="translate(0,0)"/>
<path d="" fill="#353833" transform="translate(0,0)"/>
<path d="" fill="#32312E" transform="translate(0,0)"/>
<path d="" fill="#323530" transform="translate(0,0)"/>
<path d="" fill="#313130" transform="translate(0,0)"/>
<path d="" fill="#2F302D" transform="translate(0,0)"/>
<path d="" fill="#333131" transform="translate(0,0)"/>
<path d="" fill="#32332F" transform="translate(0,0)"/>
<path d="" fill="#313231" transform="translate(0,0)"/>
<path d="" fill="#2F3132" transform="translate(0,0)"/>
<path d="" fill="#2E302F" transform="translate(0,0)"/>
<path d="" fill="#353232" transform="translate(0,0)"/>
<path d="" fill="#2E302E" transform="translate(0,0)"/>
<path d="" fill="#31302F" transform="translate(0,0)"/>
<path d="" fill="#333331" transform="translate(0,0)"/>
<path d="" fill="#2F2E2F" transform="translate(0,0)"/>
<path d="" fill="#31312F" transform="translate(0,0)"/>
<path d="" fill="#302F2D" transform="translate(0,0)"/>
<path d="" fill="#30302C" transform="translate(0,0)"/>
<path d="" fill="#313132" transform="translate(0,0)"/>
<path d="" fill="#302F2D" transform="translate(0,0)"/>
<path d="" fill="#30302F" transform="translate(0,0)"/>
<path d="" fill="#2D3030" transform="translate(0,0)"/>
<path d="" fill="#2D2D2C" transform="translate(0,0)"/>
<path d="" fill="#302F2F" transform="translate(0,0)"/>
<path d="" fill="#2F2E2D" transform="translate(0,0)"/>
<path d="" fill="#2E2E2D" transform="translate(0,0)"/>
<path d="" fill="#31312E" transform="translate(0,0)"/>
<path d="" fill="#32302E" transform="translate(0,0)"/>
<path d="" fill="#2D2B2A" transform="translate(0,0)"/>
<path d="" fill="#2A2B28" transform="translate(0,0)"/>
<path d="" fill="#2C2B2C" transform="translate(0,0)"/>
<path d="" fill="#2D2D2E" transform="translate(0,0)"/>
<path d="" fill="#2F2D2B" transform="translate(0,0)"/>
<path d="" fill="#32322C" transform="translate(0,0)"/>
<path d="" fill="#30302D" transform="translate(0,0)"/>
<path d="" fill="#2F2F2E" transform="translate(0,0)"/>
<path d="" fill="#2C2D2A" transform="translate(0,0)"/>
<path d="" fill="#2D2E2D" transform="translate(0,0)"/>
<path d="" fill="#33322F" transform="translate(0,0)"/>
<path d="" fill="#373632" transform="translate(0,0)"/>
<path d="" fill="#30312F" transform="translate(0,0)"/>
<path d="" fill="#2C2C29" transform="translate(0,0)"/>
<path d="" fill="#2B2A2B" transform="translate(0,0)"/>
<path d="" fill="#2D2B29" transform="translate(0,0)"/>
<path d="" fill="#282928" transform="translate(0,0)"/>
<path d="" fill="#2C2C2A" transform="translate(0,0)"/>
<path d="" fill="#32302D" transform="translate(0,0)"/>
<path d="" fill="#2F2E2D" transform="translate(0,0)"/>
<path d="" fill="#2F2F2D" transform="translate(0,0)"/>
<path d="" fill="#2B2C2A" transform="translate(0,0)"/>
<path d="" fill="#31332D" transform="translate(0,0)"/>
<path d="" fill="#2E322F" transform="translate(0,0)"/>
<path d="" fill="#2F2E2D" transform="translate(0,0)"/>
<path d="" fill="#313031" transform="translate(0,0)"/>
<path d="" fill="#313231" transform="translate(0,0)"/>
<path d="" fill="#33312F" transform="translate(0,0)"/>
<path d="" fill="#343632" transform="translate(0,0)"/>
<path d="" fill="#30312D" transform="translate(0,0)"/>
<path d="" fill="#313330" transform="translate(0,0)"/>
<path d="" fill="#31312F" transform="translate(0,0)"/>
<path d="" fill="#32322F" transform="translate(0,0)"/>
<path d="" fill="#333232" transform="translate(0,0)"/>
<path d="" fill="#302E2D" transform="translate(0,0)"/>
<path d="" fill="#302E2D" transform="translate(0,0)"/>
<path d="" fill="#32312D" transform="translate(0,0)"/>
<path d="" fill="#2D2F2E" transform="translate(0,0)"/>
<path d="" fill="#32312F" transform="translate(0,0)"/>
<path d="" fill="#313233" transform="translate(0,0)"/>
<path d="" fill="#30302F" transform="translate(0,0)"/>
<path d="" fill="#30312E" transform="translate(0,0)"/>
<path d="" fill="#322F2F" transform="translate(0,0)"/>
<path d="" fill="#2D2E2D" transform="translate(0,0)"/>
<path d="" fill="#2D2F2A" transform="translate(0,0)"/>
<path d="" fill="#31322F" transform="translate(0,0)"/>
<path d="" fill="#2D2F2D" transform="translate(0,0)"/>
<path d="" fill="#2F302E" transform="translate(0,0)"/>
<path d="" fill="#2B2C2A" transform="translate(0,0)"/>
<path d="" fill="#2B2C2A" transform="translate(0,0)"/>
<path d="" fill="#33322D" transform="translate(0,0)"/>
<path d="" fill="#312F2F" transform="translate(0,0)"/>
<path d="" fill="#2F302D" transform="translate(0,0)"/>
<path d="" fill="#302F2D" transform="translate(0,0)"/>
<path d="" fill="#2E2D2E" transform="translate(0,0)"/>
<path d="" fill="#333532" transform="translate(0,0)"/>
<path d="" fill="#2F312F" transform="translate(0,0)"/>
<path d="" fill="#32302F" transform="translate(0,0)"/>
<path d="" fill="#30322E" transform="translate(0,0)"/>
<path d="" fill="#32322F" transform="translate(0,0)"/>
<path d="" fill="#312F2D" transform="translate(0,0)"/>
<path d="" fill="#313230" transform="translate(0,0)"/>
<path d="" fill="#333230" transform="translate(0,0)"/>
<path d="" fill="#31322D" transform="translate(0,0)"/>
<path d="" fill="#35332F" transform="translate(0,0)"/>
<path d="" fill="#32332F" transform="translate(0,0)"/>
<path d="" fill="#393A37" transform="translate(0,0)"/>
<path d="" fill="#343532" transform="translate(0,0)"/>
<path d="" fill="#323230" transform="translate(0,0)"/>
<path d="" fill="#32312E" transform="translate(0,0)"/>
<path d="" fill="#30302C" transform="translate(0,0)"/>
<path d="" fill="#31302B" transform="translate(0,0)"/>
<path d="" fill="#31302D" transform="translate(0,0)"/>
<path d="" fill="#2F2F2E" transform="translate(0,0)"/>
<path d="" fill="#2D2D2B" transform="translate(0,0)"/>
<path d="" fill="#2E2F2C" transform="translate(0,0)"/>
<path d="" fill="#2E2F2B" transform="translate(0,0)"/>
<path d="" fill="#323534" transform="translate(0,0)"/>
<path d="" fill="#2E2D2C" transform="translate(0,0)"/>
<path d="" fill="#353433" transform="translate(0,0)"/>
<path d="" fill="#363633" transform="translate(0,0)"/>
<path d="" fill="#343531" transform="translate(0,0)"/>
<path d="" fill="#383937" transform="translate(0,0)"/>
<path d="" fill="#373836" transform="translate(0,0)"/>
<path d="" fill="#353231" transform="translate(0,0)"/>
<path d="" fill="#313231" transform="translate(0,0)"/>
<path d="" fill="#373736" transform="translate(0,0)"/>
<path d="" fill="#302E2C" transform="translate(0,0)"/>
<path d="" fill="#30302C" transform="translate(0,0)"/>
<path d="" fill="#373735" transform="translate(0,0)"/>
<path d="" fill="#313330" transform="translate(0,0)"/>
<path d="" fill="#33332F" transform="translate(0,0)"/>
<path d="" fill="#2D2F2F" transform="translate(0,0)"/>
<path d="" fill="#343231" transform="translate(0,0)"/>
<path d="" fill="#312E2E" transform="translate(0,0)"/>
<path d="" fill="#2C302E" transform="translate(0,0)"/>
<path d="" fill="#2C2E2C" transform="translate(0,0)"/>
<path d="" fill="#363531" transform="translate(0,0)"/>
<path d="" fill="#2C2E2A" transform="translate(0,0)"/>
<path d="" fill="#2E2D2B" transform="translate(0,0)"/>
<path d="" fill="#31342F" transform="translate(0,0)"/>
<path d="" fill="#2B2C2C" transform="translate(0,0)"/>
<path d="" fill="#313230" transform="translate(0,0)"/>
<path d="" fill="#323132" transform="translate(0,0)"/>
<path d="" fill="#2F3130" transform="translate(0,0)"/>
<path d="" fill="#30312F" transform="translate(0,0)"/>
<path d="" fill="#353535" transform="translate(0,0)"/>
<path d="" fill="#343633" transform="translate(0,0)"/>
<path d="" fill="#2A2A28" transform="translate(0,0)"/>
<path d="" fill="#313130" transform="translate(0,0)"/>
<path d="" fill="#30322F" transform="translate(0,0)"/>
<path d="" fill="#2A2827" transform="translate(0,0)"/>
<path d="" fill="#353433" transform="translate(0,0)"/>
<path d="" fill="#30302B" transform="translate(0,0)"/>
<path d="" fill="#353734" transform="translate(0,0)"/>
<path d="" fill="#2F2F2F" transform="translate(0,0)"/>
<path d="" fill="#312F2D" transform="translate(0,0)"/>
<path d="" fill="#2C2D2D" transform="translate(0,0)"/>
<path d="" fill="#30302E" transform="translate(0,0)"/>
<path d="" fill="#30302F" transform="translate(0,0)"/>
<path d="" fill="#31302E" transform="translate(0,0)"/>
<path d="" fill="#30302D" transform="translate(0,0)"/>
<path d="" fill="#363232" transform="translate(0,0)"/>
<path d="" fill="#2E2E2C" transform="translate(0,0)"/>
<path d="" fill="#333332" transform="translate(0,0)"/>
<path d="" fill="#2F302F" transform="translate(0,0)"/>
<path d="" fill="#2F2D2C" transform="translate(0,0)"/>
<path d="" fill="#2F312E" transform="translate(0,0)"/>
<path d="" fill="#2D2E2A" transform="translate(0,0)"/>
<path d="" fill="#323332" transform="translate(0,0)"/>
<path d="" fill="#2E2C2C" transform="translate(0,0)"/>
<path d="" fill="#353533" transform="translate(0,0)"/>
<path d="" fill="#373433" transform="translate(0,0)"/>
<path d="" fill="#363433" transform="translate(0,0)"/>
<path d="" fill="#2E2D2C" transform="translate(0,0)"/>
<path d="" fill="#363431" transform="translate(0,0)"/>
<path d="" fill="#2C2C2B" transform="translate(0,0)"/>
<path d="" fill="#2F2F2E" transform="translate(0,0)"/>
<path d="" fill="#343430" transform="translate(0,0)"/>
<path d="" fill="#302D2B" transform="translate(0,0)"/>
<path d="" fill="#2F2D2B" transform="translate(0,0)"/>
<path d="" fill="#2F2F2B" transform="translate(0,0)"/>
<path d="" fill="#2E2E2B" transform="translate(0,0)"/>
<path d="" fill="#2E2E2C" transform="translate(0,0)"/>
<path d="" fill="#2C2C2A" transform="translate(0,0)"/>
<path d="" fill="#2D2E2C" transform="translate(0,0)"/>
<path d="" fill="#2B2B27" transform="translate(0,0)"/>
<path d="" fill="#2D2C2B" transform="translate(0,0)"/>
<path d="" fill="#313030" transform="translate(0,0)"/>
<path d="" fill="#2E3030" transform="translate(0,0)"/>
<path d="" fill="#2D2D2D" transform="translate(0,0)"/>
<path d="" fill="#2B2D29" transform="translate(0,0)"/>
<path d="" fill="#2D2F2C" transform="translate(0,0)"/>
<path d="" fill="#313130" transform="translate(0,0)"/>
<path d="" fill="#2E2E2B" transform="translate(0,0)"/>
<path d="" fill="#2E302C" transform="translate(0,0)"/>
<path d="" fill="#2E2E2C" transform="translate(0,0)"/>
<path d="" fill="#2D2C2E" transform="translate(0,0)"/>
<path d="" fill="#343331" transform="translate(0,0)"/>
<path d="" fill="#302E30" transform="translate(0,0)"/>
<path d="" fill="#2D2B2B" transform="translate(0,0)"/>
<path d="" fill="#2E2E2C" transform="translate(0,0)"/>
<path d="" fill="#2E2D2E" transform="translate(0,0)"/>
<path d="" fill="#2C2E2C" transform="translate(0,0)"/>
<path d="" fill="#302F2D" transform="translate(0,0)"/>
<path d="" fill="#2E2E2C" transform="translate(0,0)"/>
<path d="" fill="#2D2E2C" transform="translate(0,0)"/>
<path d="" fill="#2F2F31" transform="translate(0,0)"/>
<path d="" fill="#2D2E2D" transform="translate(0,0)"/>
<path d="" fill="#2E2E2C" transform="translate(0,0)"/>
<path d="" fill="#363832" transform="translate(0,0)"/>
<path d="" fill="#2B2B28" transform="translate(0,0)"/>
<path d="" fill="#2D2C2A" transform="translate(0,0)"/>
<path d="" fill="#2C2B2A" transform="translate(0,0)"/>
<path d="" fill="#34322F" transform="translate(0,0)"/>
<path d="" fill="#2D2E2C" transform="translate(0,0)"/>
<path d="" fill="#2C282A" transform="translate(0,0)"/>
<path d="" fill="#2E2D2C" transform="translate(0,0)"/>
<path d="" fill="#323231" transform="translate(0,0)"/>
<path d="" fill="#363132" transform="translate(0,0)"/>
<path d="" fill="#30322F" transform="translate(0,0)"/>
<path d="" fill="#2D2B29" transform="translate(0,0)"/>
<path d="" fill="#2D2C29" transform="translate(0,0)"/>
<path d="" fill="#302D2C" transform="translate(0,0)"/>
<path d="" fill="#323330" transform="translate(0,0)"/>
<path d="" fill="#363434" transform="translate(0,0)"/>
<path d="" fill="#32312F" transform="translate(0,0)"/>
<path d="" fill="#323331" transform="translate(0,0)"/>
<path d="" fill="#323332" transform="translate(0,0)"/>
<path d="" fill="#323433" transform="translate(0,0)"/>
<path d="" fill="#353536" transform="translate(0,0)"/>
<path d="" fill="#363735" transform="translate(0,0)"/>
<path d="" fill="#2C2A29" transform="translate(0,0)"/>
<path d="" fill="#313330" transform="translate(0,0)"/>
<path d="" fill="#2C2C2A" transform="translate(0,0)"/>
<path d="" fill="#363534" transform="translate(0,0)"/>
<path d="" fill="#2D2A2A" transform="translate(0,0)"/>
<path d="" fill="#363733" transform="translate(0,0)"/>
<path d="" fill="#2D2D2A" transform="translate(0,0)"/>
<path d="" fill="#2F2F2C" transform="translate(0,0)"/>
<path d="" fill="#363835" transform="translate(0,0)"/>
<path d="" fill="#363634" transform="translate(0,0)"/>
<path d="" fill="#31312F" transform="translate(0,0)"/>
<path d="" fill="#333433" transform="translate(0,0)"/>
<path d="" fill="#313233" transform="translate(0,0)"/>
<path d="" fill="#31312F" transform="translate(0,0)"/>
<path d="" fill="#31302D" transform="translate(0,0)"/>
<path d="" fill="#353534" transform="translate(0,0)"/>
<path d="" fill="#2F2E2F" transform="translate(0,0)"/>
<path d="" fill="#2F302E" transform="translate(0,0)"/>
<path d="" fill="#30302D" transform="translate(0,0)"/>
<path d="" fill="#333332" transform="translate(0,0)"/>
<path d="" fill="#34312F" transform="translate(0,0)"/>
<path d="" fill="#2A2928" transform="translate(0,0)"/>
<path d="" fill="#312F2C" transform="translate(0,0)"/>
<path d="" fill="#302E2C" transform="translate(0,0)"/>
<path d="" fill="#2F302E" transform="translate(0,0)"/>
<path d="" fill="#2E2E2C" transform="translate(0,0)"/>
<path d="" fill="#303230" transform="translate(0,0)"/>
<path d="" fill="#2F302D" transform="translate(0,0)"/>
<path d="" fill="#343632" transform="translate(0,0)"/>
<path d="" fill="#353532" transform="translate(0,0)"/>
<path d="" fill="#2F302D" transform="translate(0,0)"/>
<path d="" fill="#2E2F2D" transform="translate(0,0)"/>
<path d="" fill="#373534" transform="translate(0,0)"/>
<path d="" fill="#333331" transform="translate(0,0)"/>
<path d="" fill="#34342F" transform="translate(0,0)"/>
<path d="" fill="#333231" transform="translate(0,0)"/>
<path d="" fill="#33352F" transform="translate(0,0)"/>
<path d="" fill="#333432" transform="translate(0,0)"/>
<path d="" fill="#353433" transform="translate(0,0)"/>
<path d="" fill="#343231" transform="translate(0,0)"/>
<path d="" fill="#32312F" transform="translate(0,0)"/>
<path d="" fill="#30332E" transform="translate(0,0)"/>
<path d="" fill="#302F30" transform="translate(0,0)"/>
<path d="" fill="#373732" transform="translate(0,0)"/>
<path d="" fill="#333334" transform="translate(0,0)"/>
<path d="" fill="#363735" transform="translate(0,0)"/>
<path d="" fill="#353735" transform="translate(0,0)"/>
<path d="" fill="#343333" transform="translate(0,0)"/>
<path d="" fill="#31342E" transform="translate(0,0)"/>
<path d="" fill="#343732" transform="translate(0,0)"/>
<path d="" fill="#343534" transform="translate(0,0)"/>
<path d="" fill="#33322F" transform="translate(0,0)"/>
<path d="" fill="#343432" transform="translate(0,0)"/>
<path d="" fill="#383735" transform="translate(0,0)"/>
<path d="" fill="#323533" transform="translate(0,0)"/>
<path d="" fill="#353336" transform="translate(0,0)"/>
<path d="" fill="#353231" transform="translate(0,0)"/>
<path d="" fill="#383734" transform="translate(0,0)"/>
<path d="" fill="#343535" transform="translate(0,0)"/>
<path d="" fill="#363534" transform="translate(0,0)"/>
<path d="" fill="#373836" transform="translate(0,0)"/>
</svg>
